<?xml version="1.0" encoding="UTF-8" standalone="no"?>
<!-- Created with Inkscape (http://www.inkscape.org/) -->

<svg
   xmlns:dc="http://purl.org/dc/elements/1.1/"
   xmlns:cc="http://creativecommons.org/ns#"
   xmlns:rdf="http://www.w3.org/1999/02/22-rdf-syntax-ns#"
   xmlns:svg="http://www.w3.org/2000/svg"
   xmlns="http://www.w3.org/2000/svg"
   xmlns:sodipodi="http://sodipodi.sourceforge.net/DTD/sodipodi-0.dtd"
   xmlns:inkscape="http://www.inkscape.org/namespaces/inkscape"
   width="68.860001"
   height="68.864998"
   id="svg10956"
   version="1.1"
   inkscape:version="0.48.4 r"
   sodipodi:docname="bleuSucre.svg">
  <defs
     id="defs10958">
    <linearGradient
       id="SVGID_81_"
       gradientUnits="userSpaceOnUse"
       x1="218.9521"
       y1="299.6904"
       x2="218.9521"
       y2="258.4238">
      <stop
         offset="0"
         style="stop-color:#FFC44A;stop-opacity:0"
         id="stop5231" />
      <stop
         offset="1"
         style="stop-color:#FFFFFF;stop-opacity:0.75"
         id="stop5233" />
    </linearGradient>
    <linearGradient
       id="SVGID_82_"
       gradientUnits="userSpaceOnUse"
       x1="306.31741"
       y1="299.6904"
       x2="306.31741"
       y2="258.4238">
      <stop
         offset="0"
         style="stop-color:#A6DB4A;stop-opacity:0"
         id="stop5342" />
      <stop
         offset="1"
         style="stop-color:#FFFFFF;stop-opacity:0.75"
         id="stop5344" />
    </linearGradient>
    <linearGradient
       id="SVGID_79_"
       gradientUnits="userSpaceOnUse"
       x1="393.68259"
       y1="299.6904"
       x2="393.68259"
       y2="258.4238">
      <stop
         offset="0"
         style="stop-color:#69DCCA;stop-opacity:0"
         id="stop5009" />
      <stop
         offset="1"
         style="stop-color:#FFFFFF;stop-opacity:0.75"
         id="stop5011" />
    </linearGradient>
    <linearGradient
       id="SVGID_77_"
       gradientUnits="userSpaceOnUse"
       x1="568.41211"
       y1="299.6904"
       x2="568.41211"
       y2="258.4238">
      <stop
         offset="0"
         style="stop-color:#BD6BDB;stop-opacity:0"
         id="stop4787" />
      <stop
         offset="1"
         style="stop-color:#FFFFFF;stop-opacity:0.75"
         id="stop4789" />
    </linearGradient>
  </defs>
  <sodipodi:namedview
     id="base"
     pagecolor="#ffffff"
     bordercolor="#666666"
     borderopacity="1.0"
     inkscape:pageopacity="0.0"
     inkscape:pageshadow="2"
     inkscape:zoom="7.9195959"
     inkscape:cx="137.54078"
     inkscape:cy="35.747113"
     inkscape:document-units="px"
     inkscape:current-layer="layer1"
     showgrid="false"
     fit-margin-top="3.77"
     fit-margin-left="0"
     fit-margin-right="0"
     fit-margin-bottom="3.76"
     inkscape:window-width="1920"
     inkscape:window-height="1018"
     inkscape:window-x="-8"
     inkscape:window-y="-8"
     inkscape:window-maximized="1" />
  <metadata
     id="metadata10961">
    <rdf:RDF>
      <cc:Work
         rdf:about="">
        <dc:format>image/svg+xml</dc:format>
        <dc:type
           rdf:resource="http://purl.org/dc/dcmitype/StillImage" />
        <dc:title></dc:title>
      </cc:Work>
    </rdf:RDF>
  </metadata>
  <g
     inkscape:label="Calque 1"
     inkscape:groupmode="layer"
     id="layer1"
     transform="translate(-466.48369,-567.2803)">
    <g
       transform="translate(-67.50819,316.0753)"
       id="g4686">
      <g
         id="g4688">
        <path
           d="m 601.981,295.408 c 0,18.539 -15.029,20.901 -33.568,20.901 -18.539,0 -33.568,-2.362 -33.568,-20.901 0,-18.539 12.214,-40.433 33.568,-40.433 21.354,0 33.568,21.894 33.568,40.433 z"
           id="path4690"
           inkscape:connector-curvature="0"
           style="fill:#bd6bdb" />
        <path
           d="m 569.413,314.31 c -18.539,0 -33.568,-2.362 -33.568,-20.901 0,-6.615 1.563,-13.654 4.534,-19.977 -3.622,6.813 -5.534,14.654 -5.534,21.977 0,18.539 15.029,20.901 33.568,20.901 14.958,0 27.624,-1.544 31.963,-11.874 -5.077,8.537 -17.027,9.874 -30.963,9.874 z"
           id="path4692"
           inkscape:connector-curvature="0"
           style="fill:#ffffff" />
      </g>
      <path
         d="m 596.025,293.879 c 0,16.283 -12.363,18.358 -27.612,18.358 -15.25,0 -27.612,-2.075 -27.612,-18.358 0,-16.282 10.046,-31.236 27.612,-31.236 17.566,0 27.612,14.954 27.612,31.236 z"
         id="path4694"
         inkscape:connector-curvature="0"
         style="opacity:0.5;fill:#a84db8" />
      <ellipse
         cx="568.41302"
         cy="303.728"
         rx="23.469999"
         ry="8.915"
         id="ellipse4696"
         sodipodi:cx="568.41302"
         sodipodi:cy="303.728"
         sodipodi:rx="23.469999"
         sodipodi:ry="8.915"
         style="fill:#a84db8"
         d="m 591.88302,303.728 c 0,4.92362 -10.50787,8.915 -23.47,8.915 -12.96212,0 -23.46999,-3.99138 -23.46999,-8.915 0,-4.92362 10.50787,-8.915 23.46999,-8.915 12.96213,0 23.47,3.99138 23.47,8.915 z" />
      <g
         id="g4698">
        <rect
           x="568.71198"
           y="258.42401"
           stroke-miterlimit="10"
           width="2.47"
           height="2.4690001"
           id="rect4700"
           style="opacity:0.5;fill:#d17dbb;stroke:#dca6e0;stroke-width:0.5;stroke-miterlimit:10" />
        <rect
           x="568.047"
           y="310.48801"
           stroke-miterlimit="10"
           width="2.4690001"
           height="2.4690001"
           id="rect4702"
           style="fill:#d17dbb;stroke:#dca6e0;stroke-width:0.5;stroke-miterlimit:10" />
        <rect
           x="544.36102"
           y="264.77899"
           transform="matrix(0.7073,0.7069,-0.7069,0.7073,347.7409,-307.8256)"
           stroke-miterlimit="10"
           width="2.47"
           height="2.47"
           id="rect4704"
           style="fill:#d17dbb;stroke:#dca6e0;stroke-width:0.5;stroke-miterlimit:10" />
        <rect
           x="561.48999"
           y="275.05099"
           stroke-miterlimit="10"
           width="2.47"
           height="2.4690001"
           id="rect4706"
           style="opacity:0.5;fill:#d17dbb;stroke:#dca6e0;stroke-width:0.5;stroke-miterlimit:10" />
        <rect
           x="580.48199"
           y="286.742"
           transform="matrix(0.7071,0.7071,-0.7071,0.7071,374.0111,-326.9895)"
           stroke-miterlimit="10"
           width="2.4690001"
           height="2.4690001"
           id="rect4708"
           style="fill:#d17dbb;stroke:#dca6e0;stroke-width:0.5;stroke-miterlimit:10" />
        <rect
           x="554.354"
           y="280.63101"
           stroke-miterlimit="10"
           width="2.47"
           height="2.4690001"
           id="rect4710"
           style="fill:#d17dbb;stroke:#dca6e0;stroke-width:0.5;stroke-miterlimit:10" />
        <rect
           x="558.85303"
           y="255.51401"
           stroke-miterlimit="10"
           width="2.47"
           height="2.4690001"
           id="rect4712"
           style="fill:#d17dbb;stroke:#dca6e0;stroke-width:0.5;stroke-miterlimit:10" />
        <rect
           x="579.78699"
           y="277.64999"
           stroke-miterlimit="10"
           width="2.4690001"
           height="2.4690001"
           id="rect4714"
           style="opacity:0.5;fill:#d17dbb;stroke:#dca6e0;stroke-width:0.5;stroke-miterlimit:10" />
        <rect
           x="585.03699"
           y="261.435"
           stroke-miterlimit="10"
           width="2.4690001"
           height="2.4690001"
           id="rect4716"
           style="fill:#d17dbb;stroke:#dca6e0;stroke-width:0.5;stroke-miterlimit:10" />
        <rect
           x="587.96301"
           y="286.00601"
           transform="matrix(0.7067,-0.7075,0.7075,0.7067,-30.4191,501.1041)"
           stroke-miterlimit="10"
           width="2.471"
           height="2.471"
           id="rect4718"
           style="opacity:0.5;fill:#d17dbb;stroke:#dca6e0;stroke-width:0.5;stroke-miterlimit:10" />
        <rect
           x="541.41901"
           y="284.48499"
           transform="matrix(0.7075,0.7067,-0.7067,0.7075,360.6461,-299.9267)"
           stroke-miterlimit="10"
           width="2.4679999"
           height="2.4690001"
           id="rect4720"
           style="opacity:0.5;fill:#d17dbb;stroke:#dca6e0;stroke-width:0.5;stroke-miterlimit:10" />
        <rect
           x="548.30402"
           y="288.98999"
           stroke-miterlimit="10"
           width="2.4690001"
           height="2.4690001"
           id="rect4722"
           style="fill:#d17dbb;stroke:#dca6e0;stroke-width:0.5;stroke-miterlimit:10" />
        <rect
           x="559.849"
           y="302.492"
           stroke-miterlimit="10"
           width="2.4690001"
           height="2.4690001"
           id="rect4724"
           style="fill:#d17dbb;stroke:#dca6e0;stroke-width:0.5;stroke-miterlimit:10" />
        <rect
           x="595.95801"
           y="276.04001"
           transform="matrix(0.7073,-0.7069,0.7069,0.7073,-21.212,503.3184)"
           stroke-miterlimit="10"
           width="2.47"
           height="2.4690001"
           id="rect4726"
           style="fill:#d17dbb;stroke:#dca6e0;stroke-width:0.5;stroke-miterlimit:10" />
        <rect
           x="586.21802"
           y="273.39801"
           transform="matrix(0.7073,-0.7069,0.7069,0.7073,-22.1957,495.6594)"
           stroke-miterlimit="10"
           width="2.47"
           height="2.4690001"
           id="rect4728"
           style="opacity:0.5;fill:#d17dbb;stroke:#dca6e0;stroke-width:0.5;stroke-miterlimit:10" />
        <rect
           x="574.06097"
           y="279.396"
           transform="matrix(0.7071,-0.7071,0.7071,0.7071,-29.9359,488.9902)"
           stroke-miterlimit="10"
           width="2.4690001"
           height="2.47"
           id="rect4730"
           style="fill:#d17dbb;stroke:#dca6e0;stroke-width:0.5;stroke-miterlimit:10" />
        <rect
           x="558.33197"
           y="293.87299"
           transform="matrix(0.7067,-0.7075,0.7075,0.7067,-44.675,482.447)"
           stroke-miterlimit="10"
           width="2.471"
           height="2.471"
           id="rect4732"
           style="opacity:0.5;fill:#d17dbb;stroke:#dca6e0;stroke-width:0.5;stroke-miterlimit:10" />
        <rect
           x="583.52399"
           y="297.008"
           transform="matrix(0.7075,-0.7067,0.7067,0.7075,-39.7308,500.4899)"
           stroke-miterlimit="10"
           width="2.4679999"
           height="2.4679999"
           id="rect4734"
           style="opacity:0.5;fill:#d17dbb;stroke:#dca6e0;stroke-width:0.5;stroke-miterlimit:10" />
        <rect
           x="547.06897"
           y="276.285"
           transform="matrix(0.7071,-0.7071,0.7071,0.7071,-35.6415,468.9929)"
           stroke-miterlimit="10"
           width="2.4690001"
           height="2.4690001"
           id="rect4736"
           style="opacity:0.5;fill:#d17dbb;stroke:#dca6e0;stroke-width:0.5;stroke-miterlimit:10" />
        <rect
           x="576.28601"
           y="262.32501"
           transform="matrix(0.7071,0.7071,-0.7071,0.7071,355.5159,-331.1741)"
           stroke-miterlimit="10"
           width="2.4690001"
           height="2.4679999"
           id="rect4738"
           style="fill:#d17dbb;stroke:#dca6e0;stroke-width:0.5;stroke-miterlimit:10" />
        <rect
           x="562.82898"
           y="284.26199"
           transform="matrix(0.7075,0.7067,-0.7067,0.7075,366.7512,-315.1226)"
           stroke-miterlimit="10"
           width="2.4679999"
           height="2.4690001"
           id="rect4740"
           style="fill:#d17dbb;stroke:#dca6e0;stroke-width:0.5;stroke-miterlimit:10" />
        <rect
           x="573.28497"
           y="269.909"
           transform="matrix(0.7067,0.7075,-0.7075,0.7067,360.3342,-326.9514)"
           stroke-miterlimit="10"
           width="2.471"
           height="2.4679999"
           id="rect4742"
           style="opacity:0.5;fill:#d17dbb;stroke:#dca6e0;stroke-width:0.5;stroke-miterlimit:10" />
        <rect
           x="552.479"
           y="273.39801"
           transform="matrix(0.7071,0.7071,-0.7071,0.7071,356.3738,-311.0967)"
           stroke-miterlimit="10"
           width="2.4690001"
           height="2.4690001"
           id="rect4744"
           style="fill:#d17dbb;stroke:#dca6e0;stroke-width:0.5;stroke-miterlimit:10" />
        <rect
           x="574.80402"
           y="293.577"
           transform="matrix(0.7067,0.7075,-0.7075,0.7067,377.5247,-321.0842)"
           stroke-miterlimit="10"
           width="2.471"
           height="2.4679999"
           id="rect4746"
           style="opacity:0.5;fill:#d17dbb;stroke:#dca6e0;stroke-width:0.5;stroke-miterlimit:10" />
        <rect
           x="572.31403"
           y="305.996"
           transform="matrix(-0.7073,0.7069,-0.7069,-0.7073,1196.4072,119.0908)"
           stroke-miterlimit="10"
           width="2.47"
           height="2.47"
           id="rect4748"
           style="opacity:0.5;fill:#d17dbb;stroke:#dca6e0;stroke-width:0.5;stroke-miterlimit:10" />
        <rect
           x="537.90601"
           y="277.08301"
           stroke-miterlimit="10"
           width="2.47"
           height="2.4690001"
           id="rect4750"
           style="fill:#d17dbb;stroke:#dca6e0;stroke-width:0.5;stroke-miterlimit:10" />
        <rect
           x="549.53802"
           y="306.99799"
           stroke-miterlimit="10"
           width="2.4690001"
           height="2.4690001"
           id="rect4752"
           style="fill:#d17dbb;stroke:#dca6e0;stroke-width:0.5;stroke-miterlimit:10" />
        <rect
           x="539.71899"
           y="302.48901"
           transform="matrix(-0.7067,-0.7075,0.7075,-0.7067,708.3667,901.0964)"
           stroke-miterlimit="10"
           width="2.471"
           height="2.471"
           id="rect4754"
           style="fill:#d17dbb;stroke:#dca6e0;stroke-width:0.5;stroke-miterlimit:10" />
        <rect
           x="599.50403"
           y="293.875"
           transform="matrix(-0.7075,0.7067,-0.7067,-0.7075,1234.3191,79.3516)"
           stroke-miterlimit="10"
           width="2.4679999"
           height="2.4690001"
           id="rect4756"
           style="fill:#d17dbb;stroke:#dca6e0;stroke-width:0.5;stroke-miterlimit:10" />
        <rect
           x="593.61902"
           y="298.38"
           stroke-miterlimit="10"
           width="2.4690001"
           height="2.4690001"
           id="rect4758"
           style="opacity:0.5;fill:#d17dbb;stroke:#dca6e0;stroke-width:0.5;stroke-miterlimit:10" />
        <rect
           x="591.06299"
           y="268.24899"
           stroke-miterlimit="10"
           width="2.4690001"
           height="2.4690001"
           id="rect4760"
           style="fill:#d17dbb;stroke:#dca6e0;stroke-width:0.5;stroke-miterlimit:10" />
        <rect
           x="534.85303"
           y="292.13"
           transform="matrix(-0.7073,-0.7069,0.7069,-0.7073,707.8834,879.8275)"
           stroke-miterlimit="10"
           width="2.47"
           height="2.4690001"
           id="rect4762"
           style="fill:#d17dbb;stroke:#dca6e0;stroke-width:0.5;stroke-miterlimit:10" />
        <rect
           x="591.87903"
           y="306.30301"
           transform="matrix(-0.7071,-0.7071,0.7071,-0.7071,795.0463,944.3951)"
           stroke-miterlimit="10"
           width="2.4690001"
           height="2.47"
           id="rect4764"
           style="fill:#d17dbb;stroke:#dca6e0;stroke-width:0.5;stroke-miterlimit:10" />
        <rect
           x="569.79199"
           y="299.61099"
           transform="matrix(-0.7067,-0.7075,0.7075,-0.7067,761.7292,917.4614)"
           stroke-miterlimit="10"
           width="2.471"
           height="2.471"
           id="rect4766"
           style="fill:#d17dbb;stroke:#dca6e0;stroke-width:0.5;stroke-miterlimit:10" />
        <rect
           x="552.47998"
           y="265.81601"
           transform="matrix(-0.7075,-0.7067,0.7067,-0.7075,756.7407,847.3038)"
           stroke-miterlimit="10"
           width="2.4679999"
           height="2.4679999"
           id="rect4768"
           style="opacity:0.5;fill:#d17dbb;stroke:#dca6e0;stroke-width:0.5;stroke-miterlimit:10" />
        <rect
           x="594.85303"
           y="285.67401"
           transform="matrix(-0.7071,-0.7071,0.7071,-0.7071,814.7103,911.2824)"
           stroke-miterlimit="10"
           width="2.4690001"
           height="2.4690001"
           id="rect4770"
           style="fill:#d17dbb;stroke:#dca6e0;stroke-width:0.5;stroke-miterlimit:10" />
        <rect
           x="580.776"
           y="308.74301"
           transform="matrix(-0.7077,0.7065,-0.7065,-0.7077,1212.9028,118.1504)"
           stroke-miterlimit="10"
           width="2.4690001"
           height="2.47"
           id="rect4772"
           style="fill:#d17dbb;stroke:#dca6e0;stroke-width:0.5;stroke-miterlimit:10" />
        <rect
           x="546.48199"
           y="296.271"
           transform="matrix(-0.7071,0.7071,-0.7071,-0.7071,1145.3794,120.58)"
           stroke-miterlimit="10"
           width="2.4690001"
           height="2.4690001"
           id="rect4774"
           style="opacity:0.5;fill:#d17dbb;stroke:#dca6e0;stroke-width:0.5;stroke-miterlimit:10" />
        <rect
           x="556.97998"
           y="309.741"
           transform="matrix(-0.7067,0.7075,-0.7075,-0.7067,1172.7285,135.8051)"
           stroke-miterlimit="10"
           width="2.471"
           height="2.4679999"
           id="rect4776"
           style="opacity:0.5;fill:#d17dbb;stroke:#dca6e0;stroke-width:0.5;stroke-miterlimit:10" />
        <rect
           x="575.565"
           y="255.908"
           transform="matrix(0.7075,0.7067,-0.7067,0.7075,350.4378,-332.4165)"
           stroke-miterlimit="10"
           width="2.4679999"
           height="2.4690001"
           id="rect4778"
           style="fill:#d17dbb;stroke:#dca6e0;stroke-width:0.5;stroke-miterlimit:10" />
        <rect
           x="557.84601"
           y="261.81201"
           transform="matrix(0.7071,0.7071,-0.7071,0.7071,349.7533,-318.2853)"
           stroke-miterlimit="10"
           width="2.4690001"
           height="2.4690001"
           id="rect4780"
           style="fill:#d17dbb;stroke:#dca6e0;stroke-width:0.5;stroke-miterlimit:10" />
        <rect
           x="563.76398"
           y="266.371"
           transform="matrix(0.7071,0.7071,-0.7071,0.7071,354.71,-321.1348)"
           stroke-miterlimit="10"
           width="2.4690001"
           height="2.4690001"
           id="rect4782"
           style="fill:#d17dbb;stroke:#dca6e0;stroke-width:0.5;stroke-miterlimit:10" />
      </g>
      <g
         id="g4784">
        <linearGradient
           id="linearGradient11597"
           gradientUnits="userSpaceOnUse"
           x1="568.41211"
           y1="299.6904"
           x2="568.41211"
           y2="258.4238">
          <stop
             offset="0"
             style="stop-color:#BD6BDB;stop-opacity:0"
             id="stop11599" />
          <stop
             offset="1"
             style="stop-color:#FFFFFF;stop-opacity:0.75"
             id="stop11601" />
        </linearGradient>
        <path
           d="m 591.006,286.439 c 0,17.668 -45.187,17.668 -45.187,0 0,-17.667 8.221,-28.016 22.594,-28.016 14.373,0 22.593,10.349 22.593,28.016 z"
           id="path4791"
           inkscape:connector-curvature="0"
           style="fill:url(#SVGID_77_)" />
        <path
           d="m 585.201,267.856 c 1.576,4.472 -0.771,8.097 -5.242,8.097 -4.472,0 -9.375,-3.625 -10.952,-8.097 -1.577,-4.473 0.771,-8.098 5.241,-8.098 4.473,0.001 9.375,3.626 10.953,8.098 z"
           id="path4793"
           inkscape:connector-curvature="0"
           style="fill:#ffffff" />
        <path
           d="m 589.924,277.778 c 0.125,1.485 -0.978,2.688 -2.462,2.688 -1.485,0 -2.79,-1.203 -2.916,-2.688 -0.126,-1.485 0.976,-2.689 2.461,-2.689 1.485,0 2.79,1.204 2.917,2.689 z"
           id="path4795"
           inkscape:connector-curvature="0"
           style="fill:#ffffff" />
      </g>
    </g>
  </g>
</svg>
