<?xml version="1.0" encoding="UTF-8" standalone="no"?>
<!-- Created with Inkscape (http://www.inkscape.org/) -->

<svg
   xmlns:dc="http://purl.org/dc/elements/1.1/"
   xmlns:cc="http://creativecommons.org/ns#"
   xmlns:rdf="http://www.w3.org/1999/02/22-rdf-syntax-ns#"
   xmlns:svg="http://www.w3.org/2000/svg"
   xmlns="http://www.w3.org/2000/svg"
   xmlns:xlink="http://www.w3.org/1999/xlink"
   xmlns:sodipodi="http://sodipodi.sourceforge.net/DTD/sodipodi-0.dtd"
   xmlns:inkscape="http://www.inkscape.org/namespaces/inkscape"
   width="83"
   height="83"
   id="svg10323"
   version="1.1"
   inkscape:version="0.48.4 r"
   sodipodi:docname="Nouveau document 2">
   <defs>
		<circle id="SVGID_1_" cx="298.85" cy="942.491" r="40"/>
	</defs>
  <defs
     id="defs10325">
    <clipPath
       id="SVGID_2_">
      <use
         height="1052.3622"
         width="744.09448"
         y="0"
         x="0"
         style="overflow:visible"
         xlink:href="#SVGID_1_"
         overflow="visible"
         id="use22" />
    </clipPath>
    <clipPath
       id="clipPath10265">
      <use
         height="1052.3622"
         width="744.09448"
         y="0"
         x="0"
         style="overflow:visible"
         xlink:href="#SVGID_1_"
         overflow="visible"
         id="use10267" />
    </clipPath>
  </defs>
  <sodipodi:namedview
     id="base"
     pagecolor="#ffffff"
     bordercolor="#666666"
     borderopacity="1.0"
     inkscape:pageopacity="0.0"
     inkscape:pageshadow="2"
     inkscape:zoom="0.35"
     inkscape:cx="1487.9348"
     inkscape:cy="-707.06248"
     inkscape:document-units="px"
     inkscape:current-layer="layer1"
     showgrid="false"
     fit-margin-top="0"
     fit-margin-left="0"
     fit-margin-right="0"
     fit-margin-bottom="0"
     inkscape:window-width="1920"
     inkscape:window-height="1018"
     inkscape:window-x="-8"
     inkscape:window-y="-8"
     inkscape:window-maximized="1" />
  <metadata
     id="metadata10328">
    <rdf:RDF>
      <cc:Work
         rdf:about="">
        <dc:format>image/svg+xml</dc:format>
        <dc:type
           rdf:resource="http://purl.org/dc/dcmitype/StillImage" />
        <dc:title></dc:title>
      </cc:Work>
    </rdf:RDF>
  </metadata>
  <g
     inkscape:label="Calque 1"
     inkscape:groupmode="layer"
     id="layer1"
     transform="translate(1112.9349,257.7003)">
    <g
       transform="translate(-1370.2786,-1158.7003)"
       id="g14">
      <g
         id="g16">
        <clipPath
           id="clipPath10273">
          <use
             height="1052.3622"
             width="744.09448"
             y="0"
             x="0"
             style="overflow:visible"
             xlink:href="#SVGID_1_"
             overflow="visible"
             id="use10275" />
        </clipPath>
        <g
           clip-path="url(#SVGID_2_)"
           id="g24">
          <path
             style="fill:#fae6ff"
             inkscape:connector-curvature="0"
             d="m 317.257,958.317 c 2.544,-2.917 4.417,-6.437 5.412,-10.207 0.496,-1.885 0.773,-3.827 0.824,-5.762 0.013,-0.496 0.01,-0.948 0.002,-1.399 -0.012,-0.453 -0.032,-0.908 -0.064,-1.361 -0.063,-0.907 -0.168,-1.814 
-0.316,-2.715 0.792,4.851 -0.858,8.637 -3.037,10.56 -2.201,1.979 -4.846,2.461 -7.277,2.482 -2.451,0.009 -4.743,-0.435 -6.638,-0.697 -0.95,-0.131 -1.8,-0.224 -2.565,-0.198 -0.768,0.026 -1.443,0.17 -2.143,0.518 
-1.168,0.58 -2.497,0.887 -3.796,0.89 -1.048,0.006 -2.046,-0.276 -2.949,-0.822 0.533,0.325 0.891,0.736 1.239,1.31 0.345,0.569 0.683,1.286 1.09,2.101 0.203,0.407 0.421,0.842 0.659,1.29 0.25,0.448 0.528,0.914 
0.813,1.389 0.574,0.948 1.213,1.935 1.969,2.876 1.506,1.866 3.507,3.618 6.412,4.116 1.443,0.24 3.111,0.149 4.909,-0.504 1.788,-0.655 3.722,-1.874 5.456,-3.867 z"
             id="path26" />
          <path
             style="fill:#ffcf47"
             inkscape:connector-curvature="0"
             d="m 296.474,967.103 c 0.511,0.032 1.058,0.048 1.537,0.044 0.482,-0.002 0.966,-0.019 1.449,-0.049 0.967,-0.058 1.933,-0.169 2.891,-0.34 1.915,-0.338 3.796,-0.892 5.584,-1.655 3.583,-1.518 6.784,-3.863 9.323,-6.785 
-1.734,1.992 -3.667,3.212 -5.456,3.864 -1.798,0.653 -3.466,0.744 -4.909,0.504 -2.904,-0.498 -4.906,-2.25 -6.412,-4.116 -0.756,-0.941 -1.395,-1.928 -1.969,-2.876 -0.285,-0.475 -0.563,-0.94 -0.813,-1.389 -0.238,-0.448 
-0.456,-0.883 -0.659,-1.29 -0.407,-0.814 -0.745,-1.531 -1.09,-2.101 -0.348,-0.573 -0.707,-0.984 -1.239,-1.31 -0.898,-0.545 -1.655,-1.367 -2.121,-2.306 -0.235,-0.47 -0.402,-0.968 -0.497,-1.486 -0.045,-0.262 
-0.078,-0.526 -0.086,-0.799 -0.013,-0.238 -0.003,-0.383 0.016,-0.571 -0.013,0.105 -0.035,0.206 -0.067,0.306 l -0.129,0.353 c -0.103,0.286 -0.25,0.562 -0.424,0.848 -0.351,0.568 -0.836,1.185 -1.382,1.901 -1.088,1.429 
-2.444,3.239 -3.383,5.428 -0.918,2.174 -1.444,4.798 -0.265,7.588 0.596,1.377 1.64,2.785 3.304,3.962 1.65,1.167 3.959,2.099 6.797,2.275 z"
             id="path28" />
          <path
             style="fill:#fae6ff"
             inkscape:connector-curvature="0"
             d="m 277.265,953.373 c 1.565,3.83 4.221,7.179 7.586,9.592 3.354,2.426 7.459,3.896 11.623,4.138 -2.838,-0.176 -5.146,-1.107 -6.799,-2.275 -1.665,-1.177 -2.708,-2.585 -3.304,-3.962 -1.179,-2.79 -0.653,-5.414 
0.265,-7.588 0.939,-2.188 2.295,-3.999 3.383,-5.428 0.546,-0.717 1.031,-1.333 1.382,-1.901 0.174,-0.286 0.321,-0.562 0.424,-0.848 l 0.129,-0.353 c 0.033,-0.1 0.055,-0.2 0.067,-0.306 0.077,-0.698 0.42,-1.39 
0.975,-1.918 0.553,-0.532 1.24,-0.852 2.006,-0.912 -0.458,0.039 -0.836,-0.101 -1.359,-0.349 -0.516,-0.247 -1.156,-0.59 -1.937,-0.941 -1.555,-0.698 -3.66,-1.457 -6.01,-1.59 -1.175,-0.062 -2.411,0.041 -3.641,0.448 
-1.225,0.407 -2.448,1.128 -3.489,2.31 -0.518,0.592 -0.985,1.298 -1.364,2.126 -0.189,0.412 -0.354,0.857 -0.493,1.329 -0.135,0.438 -0.252,0.904 -0.332,1.398 -0.33,1.967 -0.181,4.419 0.888,7.03 z"
             id="path30" />
          <path
             style="fill:#94d13d"
             inkscape:connector-curvature="0"
             d="m 283.032,929.876 c -3.496,2.726 -6.016,6.698 -6.958,11.082 -0.235,1.092 -0.38,2.202 -0.423,3.313 -0.021,0.571 -0.021,1.076 -0.002,1.585 0.017,0.511 0.053,1.023 0.108,1.534 0.213,2.045 0.724,4.072 1.508,5.983 
-1.069,-2.611 -1.218,-5.063 -0.888,-7.029 0.08,-0.494 0.197,-0.96 0.332,-1.398 0.139,-0.472 0.304,-0.917 0.493,-1.329 0.379,-0.828 0.846,-1.534 1.364,-2.126 1.041,-1.182 2.264,-1.902 3.489,-2.31 1.23,-0.407 
2.465,-0.51 3.641,-0.448 2.351,0.133 4.455,0.892 6.01,1.59 0.781,0.352 1.421,0.694 1.937,0.941 0.523,0.248 0.902,0.388 1.359,0.349 l 0.197,-0.014 c 0.045,-0.002 0.087,-0.001 0.129,10e-4 0.083,0.006 0.165,0.02 
0.247,0.044 0.164,0.044 0.336,0.137 0.483,0.264 0.147,0.128 0.263,0.283 0.338,0.443 0.039,0.081 0.066,0.166 0.087,0.258 0.01,0.046 0.018,0.095 0.023,0.146 l 0.001,0.009 0,0.006 0,0.002 0,0 c 0.069,-0.085 -0.155,0.19 
0.155,-0.19 l 0.003,0.016 0.026,0.122 0.053,0.244 c 0.013,-0.041 0.028,-0.081 0.046,-0.12 l 0.03,-0.059 c 0.008,-0.01 0.01,-0.002 0.017,-0.004 -0.007,-0.021 -0.036,0.036 -0.056,0.083 l -0.027,0.07 c -0.004,0.003 
-0.007,0.042 -0.012,0.017 l -0.015,-0.07 -0.06,-0.277 -0.004,-0.017 c 0.114,-0.174 -0.157,0.227 -0.128,0.186 v -10e-4 l 10e-4,-0.007 0.003,-0.011 0.009,-0.021 c 0.022,-0.059 0.056,-0.116 0.101,-0.175 0.089,-0.121 
0.22,-0.257 0.375,-0.437 0.313,-0.356 0.712,-0.887 1.086,-1.594 0.746,-1.405 1.413,-3.486 1.295,-5.781 -0.063,-1.145 -0.332,-2.344 -0.948,-3.489 -0.615,-1.139 -1.592,-2.228 -3.038,-3.013 -1.378,-0.771 -3.128,-1.285 
-5.303,-1.159 -2.146,0.127 -4.695,0.926 -7.084,2.791 z"
             id="path32" />
          <path
             style="fill:#fae6ff"
             inkscape:connector-curvature="0"
             d="m 308.159,931.935 c -1.532,-1.849 -3.461,-3.369 -5.641,-4.436 -2.176,-1.066 -4.61,-1.664 -7.03,-1.729 -4.486,-0.14 -8.967,1.357 -12.457,4.106 2.389,-1.865 4.938,-2.664 7.085,-2.792 2.175,-0.126 3.925,0.388 
5.303,1.159 1.446,0.785 2.423,1.874 3.038,3.013 0.617,1.146 0.885,2.345 0.948,3.489 0.118,2.295 -0.549,4.376 -1.295,5.781 -0.374,0.707 -0.774,1.237 -1.086,1.594 -0.155,0.18 -0.286,0.315 -0.375,0.437 -0.045,0.059 
-0.079,0.116 -0.101,0.175 l -0.009,0.021 -0.003,0.011 -10e-4,0.007 v 0.001 c -0.028,0.041 0.243,-0.359 0.128,-0.186 l 0.004,0.017 0.06,0.277 0.015,0.07 c 0.005,0.025 0.007,-0.014 0.012,-0.017 l 0.027,-0.07 c 
0.02,-0.047 0.049,-0.104 0.056,-0.083 0.201,0.034 0.089,0.023 0.067,-0.007 -0.039,-0.035 10e-4,-10e-4 0.013,0.034 0.003,0.004 -10e-4,0.007 -0.013,-0.071 l -0.006,-0.067 -0.002,-0.046 0,-0.024 v -0.011 l 0,-0.007 v 
-10e-4 l 0.152,1.474 -0.015,0.003 c 0,0 -0.144,0.108 -0.143,0.113 l -10e-4,0.015 c 0,0 -0.037,0.138 -0.003,0.021 l 0.003,-0.025 10e-4,-0.012 c -0.007,-0.006 0.131,-0.11 0.131,-0.11 l 0.024,-0.004 c 0.139,0.38 
-0.182,-0.518 -0.149,-0.425 l 10e-4,0.002 0.001,0.007 0.006,0.022 0.029,0.095 0.07,0.198 c 0.104,0.273 0.252,0.573 0.456,0.883 0.804,1.233 2.504,2.575 4.71,3.064 1.099,0.242 2.334,0.271 3.596,-0.109 1.258,-0.376 
2.555,-1.179 3.59,-2.583 0.257,-0.357 0.492,-0.724 0.706,-1.176 l 0.155,-0.398 0.074,-0.207 c 0.024,-0.073 0.048,-0.146 0.067,-0.163 l 0.124,-0.192 0.061,-0.098 0.015,-0.023 0.007,-0.014 0.004,-0.006 c 0,0.033 
0.006,-0.305 0.005,-0.168 l 0.027,-0.084 c 0.298,-0.906 0.477,-1.949 0.468,-3.105 -0.009,-2.299 -0.813,-5.109 -2.909,-7.64 z"
             id="path34" />
          <path
             style="fill:#fae6ff"
             inkscape:connector-curvature="0"
             d="m 287.659,935.29 c -1.236,1.082 -2.245,2.417 -2.952,3.917 -0.353,0.75 -0.632,1.541 -0.822,2.354 -0.096,0.407 -0.169,0.818 -0.222,1.231 -0.026,0.179 -0.053,0.49 -0.07,0.752 l -0.021,0.412 -0.002,0.062 -0.002,0.313 
0.004,0.27 c 0.002,0.18 0.009,0.359 0.022,0.54 0.02,0.361 0.062,0.723 0.11,1.083 0.106,0.721 0.271,1.436 0.495,2.135 0.444,1.397 1.134,2.716 2.008,3.89 1.749,2.348 4.301,4.104 7.171,4.892 0.719,0.197 1.437,0.334 
2.186,0.415 0.234,0.022 0.469,0.04 0.704,0.054 l 0.33,0.015 0.061,0.003 0.267,0.004 0.245,-0.002 0.489,-0.01 c 1.307,-0.061 2.625,-0.28 3.887,-0.682 -0.86,0.271 -1.713,0.438 -2.536,0.519 -0.412,0.041 -0.814,0.06 
-1.208,0.059 -0.197,0.003 -0.39,-0.009 -0.582,-0.016 l -0.286,-0.018 -0.035,-10e-4 c -0.38,-0.006 -0.11,-0.003 -0.198,-0.004 l -0.009,-0.002 -0.035,-0.007 -0.07,-0.014 c -0.016,-0.024 -0.809,-0.093 -1.184,-0.181 
-0.396,-0.08 -0.778,-0.184 -1.146,-0.3 -0.736,-0.237 -1.411,-0.544 -2.017,-0.894 -2.44,-1.421 -3.699,-3.453 -4.16,-5.218 -0.465,-1.792 -0.175,-3.365 0.424,-4.544 0.61,-1.188 1.517,-2.006 2.487,-2.53 0.977,-0.508 
2.022,-0.637 2.908,-0.485 0.443,0.076 4.815,-0.371 5.523,-0.458 0.703,-0.092 1.416,-0.287 2.026,-0.88 0.595,-0.585 1.124,-1.617 0.945,-3.224 -0.104,-0.79 -0.396,-1.721 -1.041,-2.676 -0.647,-0.94 -1.654,-1.937 
-3.134,-2.644 -0.369,-0.172 -0.765,-0.33 -1.186,-0.458 -0.113,-0.033 -0.193,-0.063 -0.337,-0.095 l -0.437,-0.088 c -0.065,-0.013 -0.169,-0.026 -0.202,-0.037 l -0.06,-0.029 -0.12,-0.058 c 0.038,-10e-4 -0.344,-0.006 
-0.192,-0.004 l -0.019,-0.002 -0.038,-0.004 -0.076,-0.007 -0.152,-0.012 -0.309,-0.019 c -0.208,-0.007 -0.42,-0.011 -0.635,-0.007 -0.432,0.012 -0.877,0.047 -1.332,0.118 -1.811,0.276 -3.784,1.093 -5.465,2.572 z"
             id="path36" />
          <path
             style="fill:#ff3d45"
             inkscape:connector-curvature="0"
             d="m 301.547,956.936 c 2.534,-0.791 4.832,-2.273 6.609,-4.229 1.784,-1.951 3.035,-4.413 3.572,-7.019 0.063,-0.325 0.126,-0.652 0.167,-0.979 0.022,-0.174 0.043,-0.307 0.063,-0.514 l 0.047,-0.618 0.02,-0.384 
0.004,-0.12 0.007,-0.329 c 0,-0.297 -0.005,-0.595 -0.019,-0.895 -0.057,-1.193 -0.243,-2.391 -0.557,-3.555 -0.625,-2.33 -1.768,-4.514 -3.301,-6.36 2.096,2.531 2.899,5.342 2.911,7.64 0.008,1.156 -0.17,2.199 
-0.468,3.105 l -0.027,0.084 c 0.001,-0.137 -0.005,0.201 -0.005,0.168 l -0.004,0.006 -0.007,0.014 -0.015,0.023 -0.061,0.098 -0.124,0.192 c -0.02,0.017 -0.043,0.09 -0.067,0.163 l -0.074,0.207 -0.155,0.398 c 
-0.214,0.452 -0.449,0.818 -0.706,1.176 -1.035,1.404 -2.332,2.207 -3.59,2.583 -1.261,0.381 -2.497,0.352 -3.596,0.109 -2.206,-0.489 -4.449,-3.86 -5.253,-5.094 -0.203,-0.311 -0.596,-1.223 -1.04,-1.298 -0.886,-0.151 
-3.63,1.188 -4.607,1.696 -0.971,0.524 -2.156,1.923 -2.766,3.11 -0.599,1.179 -0.89,2.752 -0.424,4.544 0.461,1.765 1.72,3.797 4.16,5.218 0.606,0.35 1.28,0.656 2.017,0.894 0.368,0.116 0.75,0.22 1.146,0.3 0.375,0.088 
1.168,0.156 1.184,0.181 l 0.07,0.014 0.035,0.007 0.009,0.002 c 0.087,10e-4 -0.183,-0.002 0.198,0.004 l 0.035,0.001 0.286,0.018 c 0.192,0.007 0.385,0.019 0.582,0.016 0.394,10e-4 0.796,-0.018 1.208,-0.059 0.822,-0.081 
1.676,-0.248 2.536,-0.518 z"
             id="path38" />
          <path
             style="fill:#b51c45"
             inkscape:connector-curvature="0"
             d="m 306.177,943.342 c -1.671,5.296 -7.337,8.675 -10.462,7.175 -3.125,-1.5 -4.625,-5.125 -2.848,-7.254 1.777,-2.129 3.191,-1.355 4.64,0.081 1.449,1.436 3.115,-0.069 4.708,-2.609 1.593,-2.54 -2.5,-6.843 -6.375,-8.343 
0,0 -7.139,0.854 -11,5.25 2.875,-4.25 8,-7.557 14.411,-6.097 6.463,1.472 7.888,8.747 6.926,11.797 z"
             id="path40" />
          <path
             style="fill:#fae6ff"
             inkscape:connector-curvature="0"
             d="m 260.675,956.567 c 0.953,3.323 2.451,6.563 4.432,9.468 1.974,2.91 4.416,5.471 7.11,7.584 -1.836,-1.443 -3.083,-3.052 -3.844,-4.609 -0.763,-1.563 -1.048,-3.077 -1.012,-4.467 0.079,-2.791 1.387,-5.068 2.88,-7.022 
1.506,-1.958 3.215,-3.616 4.469,-5.231 0.628,-0.81 1.146,-1.605 1.496,-2.462 0.35,-0.857 0.528,-1.772 0.507,-2.889 -0.008,-0.486 10e-4,-0.897 0.021,-1.331 0.025,-0.43 0.063,-0.857 0.117,-1.281 0.112,-0.85 
0.286,-1.687 0.522,-2.508 0.478,-1.638 1.2,-3.208 2.149,-4.644 -1.112,1.701 -2.586,2.512 -4.548,3.186 -1.938,0.666 -4.289,1.14 -6.636,1.956 -2.338,0.82 -4.688,2.006 -6.327,4.247 -0.812,1.083 -1.447,2.422 
-1.741,4.085 -0.292,1.658 -0.244,3.652 0.405,5.918 z"
             id="path42" />
          <path
             style="fill:#b08cd4"
             inkscape:connector-curvature="0"
             d="m 260.81,936.324 c -1.028,3.314 -1.538,6.796 -1.522,10.234 0.01,3.288 0.432,6.682 1.387,10.009 -0.648,-2.267 -0.697,-4.261 -0.406,-5.919 0.293,-1.663 0.929,-3.002 1.741,-4.085 1.639,-2.241 3.989,-3.427 
6.327,-4.247 2.347,-0.816 4.698,-1.29 6.636,-1.956 1.962,-0.674 3.436,-1.484 4.548,-3.186 1.889,-2.879 4.694,-5.172 7.871,-6.465 -1.871,0.779 -3.56,0.621 -5.563,0.076 -1.982,-0.54 -4.189,-1.476 -6.59,-2.134 
-2.393,-0.646 -5.006,-1.019 -7.646,-0.096 -1.314,0.462 -2.625,1.26 -3.82,2.518 -1.186,1.261 -2.263,2.99 -2.963,5.251 z"
             id="path44" />
          <path
             style="fill:#784d9c"
             inkscape:connector-curvature="0"
             d="m 263.85,942.491 c 0,-4.78 0.966,-9.339 2.709,-13.494 -0.961,0.477 -1.905,1.15 -2.786,2.077 -1.186,1.26 -2.264,2.989 -2.963,5.25 -1.028,3.314 -1.538,6.796 -1.522,10.234 0.002,0.778 0.032,1.563 0.082,2.353 
0.197,1.222 0.444,2.428 0.749,3.609 0.008,-0.658 0.048,-1.293 0.15,-1.872 0.293,-1.663 0.929,-3.002 1.741,-4.085 0.562,-0.768 1.211,-1.404 1.911,-1.952 -0.043,-0.702 -0.071,-1.408 -0.071,-2.12 z"
             id="path46" />
          <path
             style="fill:#fae6ff"
             inkscape:connector-curvature="0"
             d="m 272.451,919.47 c -5.456,4.277 -9.593,10.209 -11.641,16.854 0.7,-2.261 1.777,-3.99 2.963,-5.25 1.195,-1.258 2.505,-2.056 3.82,-2.518 2.639,-0.923 5.252,-0.55 7.646,0.096 2.401,0.658 4.608,1.594 6.59,2.134 
2.003,0.545 3.691,0.703 5.563,-0.076 1.588,-0.651 3.269,-1.058 4.987,-1.206 0.43,-0.035 0.862,-0.062 1.296,-0.063 0.422,-0.006 0.78,0.006 1.169,0.035 0.762,0.058 1.511,0.188 2.244,0.382 -1.75,-0.444 -2.783,-1.532 
-4.183,-3.105 -1.319,-1.559 -2.593,-3.576 -4.193,-5.473 -1.599,-1.881 -3.543,-3.662 -6.249,-4.386 -1.349,-0.359 -2.887,-0.439 -4.589,-0.073 -1.696,0.37 -3.564,1.19 -5.423,2.649 z"
             id="path48" />
          <path
             style="fill:#ff6ba8"
             inkscape:connector-curvature="0"
             d="m 291.68,912.169 c -6.953,0.403 -13.791,3.002 -19.229,7.301 1.859,-1.459 3.727,-2.278 5.422,-2.648 1.703,-0.366 3.24,-0.286 4.589,0.073 2.706,0.724 4.65,2.505 6.249,4.386 1.6,1.896 2.874,3.914 4.193,5.473 
1.4,1.573 2.433,2.661 4.183,3.105 2.93,0.762 5.59,2.706 7.249,5.29 -0.497,-0.767 -0.769,-1.514 -0.904,-2.343 -0.134,-0.826 -0.129,-1.732 -0.067,-2.723 0.122,-1.979 0.504,-4.313 0.5,-6.782 -0.016,-2.451 -0.42,-5.079 
-2.203,-7.33 -0.891,-1.116 -2.135,-2.131 -3.817,-2.842 -1.658,-0.719 -3.856,-1.106 -6.165,-0.96 z"
             id="path50" />
          <path
             style="fill:#fae6ff"
             inkscape:connector-curvature="0"
             d="m 312.181,918.447 c -2.876,-2.259 -6.188,-3.99 -9.717,-5.062 -1.763,-0.537 -3.578,-0.91 -5.408,-1.106 -0.914,-0.099 -1.832,-0.155 -2.749,-0.171 -0.917,-0.015 -1.749,0.008 -2.627,0.061 2.309,-0.146 4.507,0.241 
6.166,0.96 1.682,0.711 2.926,1.726 3.817,2.842 1.783,2.251 2.187,4.879 2.203,7.33 0.003,2.469 -0.379,4.804 -0.5,6.782 -0.062,0.99 -0.067,1.896 0.067,2.723 0.135,0.829 0.407,1.576 0.904,2.343 0.836,1.284 1.42,2.713 
1.725,4.205 0.153,0.746 0.238,1.509 0.249,2.284 0.015,0.687 -0.05,1.306 -0.179,1.94 0.155,-0.755 0.458,-1.332 0.917,-1.988 0.46,-0.705 1.064,-1.368 1.779,-2.057 1.42,-1.374 3.266,-2.84 4.92,-4.663 1.637,-1.819 
3.1,-4.028 3.304,-6.875 0.099,-1.418 -0.136,-2.987 -0.884,-4.638 -0.75,-1.643 -2.028,-3.365 -3.987,-4.91 z"
             id="path52" />
          <g
             id="g54">
            <path
               style="fill:#ff3d45"
               inkscape:connector-curvature="0"
               d="m 323.115,936.873 c -0.586,-3.604 -1.865,-7.106 -3.736,-10.243 -1.865,-3.143 -4.321,-5.923 -7.198,-8.183 1.959,1.545 3.237,3.267 3.986,4.91 0.748,1.65 0.983,3.22 0.884,4.638 -0.204,2.847 -1.667,5.056 
-3.304,6.875 -1.654,1.823 -3.5,3.289 -4.92,4.663 -0.714,0.688 -1.319,1.352 -1.779,2.057 -0.459,0.656 -0.761,1.233 -0.917,1.988 -0.259,1.252 -0.818,2.453 -1.631,3.488 -0.808,1.04 -1.871,1.89 -3.046,2.471 0.7,-0.348 
1.375,-0.491 2.143,-0.518 0.765,-0.025 1.615,0.067 2.565,0.198 1.895,0.263 4.187,0.706 6.638,0.697 2.431,-0.021 5.077,-0.503 7.277,-2.482 2.18,-1.922 3.83,-5.708 3.038,-10.559 z"
               id="path56" />
          </g>
          <path
             style="fill:#fae6ff"
             inkscape:connector-curvature="0"
             d="m 338.462,937.694 c -0.142,-3.077 -0.599,-6.223 -1.472,-9.343 -0.865,-3.119 -2.192,-6.201 -3.967,-9.046 1.209,1.938 1.814,3.781 2.023,5.398 0.207,1.621 0.014,3.03 -0.405,4.243 -0.851,2.429 -2.573,4.083 
-4.362,5.505 -1.801,1.422 -3.687,2.611 -5.149,4.048 -0.367,0.365 -0.707,0.721 -1.02,1.148 -0.309,0.426 -0.586,0.879 -0.825,1.367 -0.475,0.977 -0.792,2.09 -0.929,3.409 -0.461,4.416 -1.548,8.538 -3.353,11.761 
1.057,-1.917 2.53,-3.093 4.402,-3.988 1.852,-0.9 4.063,-1.491 6.268,-2.283 2.198,-0.795 4.405,-1.807 6.088,-3.655 0.842,-0.924 1.551,-2.057 2.037,-3.452 0.243,-0.698 0.43,-1.461 0.547,-2.294 0.055,-0.421 
0.099,-0.836 0.121,-1.313 0.022,-0.479 0.019,-0.981 -0.004,-1.505 z"
             id="path58" />
          <path
             style="fill:#94d13d"
             inkscape:connector-curvature="0"
             d="m 336.695,955.5 c 0.811,-3.026 1.289,-6.03 1.557,-8.98 0.134,-1.477 0.214,-2.939 0.25,-4.392 0.021,-0.727 0.024,-1.449 0.017,-2.169 l -0.015,-1.113 -0.042,-1.151 c 0.023,0.523 0.026,1.025 0.003,1.505 -0.022,0.478 
-0.066,0.893 -0.121,1.313 -0.118,0.833 -0.305,1.596 -0.547,2.294 -0.485,1.396 -1.194,2.528 -2.037,3.452 -1.683,1.849 -3.89,2.86 -6.088,3.655 -2.205,0.792 -4.416,1.383 -6.268,2.283 -1.873,0.896 -3.346,2.071 
-4.402,3.988 -1.8,3.244 -4.222,5.517 -7.425,7.01 0.958,-0.443 1.812,-0.657 2.707,-0.714 0.891,-0.056 1.81,0.038 2.79,0.208 1.959,0.34 4.156,0.997 6.518,1.358 2.343,0.347 4.883,0.385 7.297,-0.79 2.395,-1.151 
4.692,-3.617 5.806,-7.757 z"
             id="path60" />
          <path
             style="fill:#5e8038"
             inkscape:connector-curvature="0"
             d="m 338.252,946.52 c 0.134,-1.477 0.214,-2.939 0.25,-4.392 0.021,-0.727 0.024,-1.449 0.017,-2.169 l -0.015,-1.113 -0.042,-1.151 c 0.023,0.523 0.026,1.025 0.003,1.505 -0.022,0.478 -0.066,0.893 -0.121,1.313 
-0.118,0.833 -0.305,1.596 -0.547,2.294 -0.485,1.396 -1.194,2.528 -2.037,3.452 -0.713,0.783 -1.523,1.409 -2.383,1.939 -0.989,6.004 -3.511,11.493 -7.149,16.061 1.55,-10e-4 3.131,-0.256 4.661,-1.001 1.665,-0.801 
3.273,-2.255 4.479,-4.447 0.513,-1.145 0.972,-2.318 1.377,-3.518 0.777,-2.956 1.245,-5.891 1.507,-8.773 z"
             id="path62" />
          <path
             style="fill:#fae6ff"
             inkscape:connector-curvature="0"
             d="m 326.835,972.66 c 2.557,-2.402 4.673,-5.211 6.286,-8.146 1.624,-2.938 2.765,-5.993 3.574,-9.014 -1.114,4.14 -3.411,6.606 -5.806,7.758 -2.414,1.175 -4.954,1.137 -7.297,0.79 -2.362,-0.361 -4.559,-1.019 
-6.518,-1.358 -0.98,-0.17 -1.899,-0.264 -2.79,-0.208 -0.895,0.057 -1.749,0.271 -2.707,0.714 -3.192,1.504 -7.228,2.19 -11.568,2.175 2.578,-0.003 4.285,0.854 5.905,2.194 1.609,1.338 3.076,3.142 4.807,4.822 1.729,1.664 
3.729,3.235 6.411,3.72 1.336,0.237 2.846,0.193 4.505,-0.313 1.648,-0.513 3.455,-1.498 5.198,-3.134 z"
             id="path64" />
          <path
             style="fill:#5cbab3"
             inkscape:connector-curvature="0"
             d="m 308.757,981.439 c 3.148,-0.584 6.356,-1.518 9.458,-2.966 3.098,-1.439 6.068,-3.409 8.621,-5.813 -1.743,1.636 -3.55,2.621 -5.198,3.133 -1.659,0.507 -3.168,0.551 -4.505,0.313 -2.682,-0.484 -4.682,-2.056 
-6.411,-3.72 -1.731,-1.681 -3.198,-3.484 -4.807,-4.822 -1.62,-1.341 -3.327,-2.197 -5.905,-2.194 -4.25,0.003 -8.374,-0.715 -11.932,-2.203 2.112,0.87 3.392,2.269 4.425,4.118 1.029,1.836 1.773,4.082 2.743,6.314 
0.972,2.224 2.181,4.44 4.249,6.027 1.023,0.784 2.249,1.421 3.773,1.776 1.521,0.352 3.342,0.43 5.489,0.037 z"
             id="path66" />
          <path
             style="fill:#338087"
             inkscape:connector-curvature="0"
             d="m 317.132,976.106 c -1.516,-0.273 -2.809,-0.901 -3.963,-1.689 -4.375,1.97 -9.219,3.075 -14.319,3.075 -0.49,0 -0.977,-0.017 -1.462,-0.037 0.592,0.798 1.278,1.536 2.106,2.172 1.023,0.784 2.249,1.421 3.773,1.776 
1.09,0.251 2.341,0.354 3.748,0.252 4.931,-1.022 9.524,-2.959 13.608,-5.615 -1.264,0.255 -2.434,0.254 -3.491,0.066 z"
             id="path68" />
          <path
             style="fill:#fae6ff"
             inkscape:connector-curvature="0"
             d="m 290.14,981.443 c 3.118,0.576 6.244,0.836 9.333,0.823 3.033,-0.017 6.128,-0.242 9.284,-0.827 -2.146,0.393 -3.968,0.314 -5.49,-0.036 -1.525,-0.355 -2.75,-0.992 -3.773,-1.776 -2.067,-1.587 -3.276,-3.804 
-4.249,-6.027 -0.969,-2.232 -1.713,-4.479 -2.743,-6.314 -1.033,-1.85 -2.313,-3.248 -4.425,-4.118 -3.559,-1.482 -6.468,-3.699 -8.379,-6.437 0.574,0.816 0.917,1.621 1.116,2.501 0.197,0.879 0.248,1.824 0.22,2.847 
-0.05,2.04 -0.438,4.381 -0.54,6.829 -0.096,2.44 0.105,5.011 1.46,7.337 0.677,1.158 1.647,2.246 2.993,3.161 1.345,0.909 3.069,1.644 5.193,2.037 z"
             id="path70" />
          <path
             style="fill:#5c96de"
             inkscape:connector-curvature="0"
             d="m 272.216,973.619 c 2.695,2.121 5.641,3.791 8.665,5.073 3.028,1.28 6.141,2.175 9.259,2.751 -2.124,-0.394 -3.848,-1.128 -5.192,-2.038 -1.346,-0.915 -2.316,-2.003 -2.993,-3.161 -1.355,-2.326 -1.556,-4.896 
-1.46,-7.337 0.102,-2.448 0.489,-4.789 0.54,-6.829 0.028,-1.022 -0.023,-1.968 -0.22,-2.847 -0.198,-0.88 -0.542,-1.685 -1.116,-2.501 -1.921,-2.732 -2.917,-6.038 -2.986,-9.792 0.021,1.116 -0.157,2.031 -0.507,2.889 
-0.35,0.856 -0.868,1.652 -1.496,2.462 -1.253,1.615 -2.963,3.273 -4.469,5.231 -1.493,1.954 -2.801,4.231 -2.88,7.022 -0.036,1.39 0.249,2.903 1.012,4.467 0.76,1.558 2.007,3.167 3.843,4.61 z"
             id="path72" />
          <path
             style="fill:#21598c"
             inkscape:connector-curvature="0"
             d="m 268.597,960.059 c -0.701,1.34 -1.19,2.819 -1.237,4.484 -0.026,1.025 0.125,2.118 0.511,3.249 5.13,6.273 12.13,10.952 20.147,13.203 0.707,0.165 1.414,0.317 2.122,0.448 -2.124,-0.394 -3.848,-1.128 -5.192,-2.038 
-1.346,-0.915 -2.316,-2.003 -2.993,-3.161 -0.722,-1.239 -1.11,-2.548 -1.307,-3.869 -4.967,-3.037 -9.116,-7.281 -12.051,-12.316 z"
             id="path74" />
          <path
             style="fill:#fae6ff"
             inkscape:connector-curvature="0"
             d="m 260.577,928.908 c -0.745,2.627 -1.238,5.289 -1.503,7.952 -0.267,2.659 -0.308,5.329 -0.053,7.952 -0.176,-1.785 -0.178,-3.308 -0.082,-4.601 0.092,-1.294 0.282,-2.358 0.532,-3.254 0.497,-1.793 1.196,-2.912 
1.99,-3.904 0.801,-0.991 1.695,-1.868 2.8,-3.097 1.106,-1.225 2.421,-2.804 4.19,-5.063 2.962,-3.789 6.591,-6.784 10.619,-8.591 -2.394,1.087 -4.208,1.735 -5.854,2.146 -1.635,0.42 -3.074,0.598 -4.507,0.956 
-1.425,0.365 -2.859,0.924 -4.287,2.306 -1.42,1.376 -2.824,3.616 -3.845,7.198 z"
             id="path76" />
          <path
             style="fill:#ff3d45"
             inkscape:connector-curvature="0"
             d="m 268.462,914.1 c -3.886,4.395 -6.396,9.57 -7.885,14.809 1.021,-3.582 2.426,-5.822 3.845,-7.196 1.428,-1.382 2.862,-1.94 4.287,-2.306 1.434,-0.358 2.872,-0.536 4.507,-0.956 1.646,-0.411 3.46,-1.06 5.854,-2.146 
4.026,-1.827 8.419,-2.501 12.903,-2.321 -2.668,-0.099 -4.516,-0.586 -6.163,-1.267 -1.637,-0.674 -3.035,-1.558 -4.571,-2.269 -1.533,-0.7 -3.225,-1.238 -5.365,-0.91 -1.067,0.163 -2.242,0.555 -3.499,1.281 -1.255,0.725 
-2.596,1.786 -3.913,3.281 z"
             id="path78" />
          <path
             style="fill:#ff3d45"
             inkscape:connector-curvature="0"
             d="m 268.462,914.1 c -3.886,4.395 -6.396,9.57 -7.885,14.809 1.021,-3.582 2.426,-5.822 3.845,-7.196 1.428,-1.382 2.862,-1.94 4.287,-2.306 1.434,-0.358 2.872,-0.536 4.507,-0.956 1.646,-0.411 3.46,-1.06 5.854,-2.146 
4.026,-1.827 8.419,-2.501 12.903,-2.321 -2.668,-0.099 -4.516,-0.586 -6.163,-1.267 -1.637,-0.674 -3.035,-1.558 -4.571,-2.269 -1.533,-0.7 -3.225,-1.238 -5.365,-0.91 -1.067,0.163 -2.242,0.555 -3.499,1.281 -1.255,0.725 
-2.596,1.786 -3.913,3.281 z"
             id="path80" />
          <path
             style="fill:#b51c0f"
             inkscape:connector-curvature="0"
             d="m 264.989,921.207 c 1.24,-1.02 2.483,-1.483 3.719,-1.801 1.434,-0.358 2.872,-0.536 4.507,-0.956 0.103,-0.025 0.214,-0.062 0.318,-0.089 2.713,-2.846 5.898,-5.234 9.43,-7.041 -0.569,-0.302 -1.137,-0.601 
-1.726,-0.873 -1.443,-0.659 -3.032,-1.165 -4.999,-0.949 -4.501,3.091 -8.333,7.081 -11.249,11.709 z"
             id="path82" />
          <path
             style="fill:#b51c0f"
             inkscape:connector-curvature="0"
             d="m 259.021,944.813 0.113,0.624 c 0.052,0.294 0.07,0.554 0.087,0.43 0.024,-0.124 0.052,-0.643 0.335,-1.872 0.281,-1.227 0.845,-3.164 1.872,-6.031 1.719,-4.791 4.054,-9.284 7.023,-13.068 -1.769,2.259 -3.083,3.838 
-4.19,5.063 -1.105,1.229 -1.999,2.105 -2.8,3.097 -0.793,0.992 -1.493,2.111 -1.99,3.904 -0.25,0.896 -0.44,1.96 -0.532,3.254 -0.096,1.291 -0.094,2.813 0.082,4.599 z"
             id="path84" />
          <path
             style="fill:#fae6ff"
             inkscape:connector-curvature="0"
             d="m 283.416,904.519 c -2.884,0.896 -5.673,2.166 -8.207,3.795 -2.538,1.623 -4.814,3.594 -6.747,5.786 1.317,-1.494 2.658,-2.556 3.913,-3.281 1.257,-0.727 2.432,-1.118 3.499,-1.281 2.14,-0.328 3.832,0.21 5.365,0.91 
1.537,0.711 2.935,1.595 4.571,2.269 1.646,0.681 3.495,1.168 6.163,1.267 1.089,0.043 2.32,0.154 3.506,0.277 1.189,0.124 2.363,0.291 3.521,0.477 2.314,0.381 4.561,0.897 6.686,1.567 -2.535,-0.794 -4.244,-1.937 
-5.601,-3.314 -1.358,-1.366 -2.35,-2.962 -3.469,-4.482 -0.561,-0.76 -1.155,-1.498 -1.852,-2.168 -0.703,-0.669 -1.478,-1.267 -2.503,-1.729 -2.011,-0.91 -4.893,-1.297 -8.845,-0.093 z"
             id="path86" />
          <path
             style="fill:#ff7d38"
             inkscape:connector-curvature="0"
             d="m 300.782,902.721 c -1.436,-0.072 -2.863,-0.084 -4.279,-0.057 -0.708,0.013 -1.413,0.036 -2.116,0.07 l -1.052,0.06 -1.103,0.075 c -2.957,0.227 -5.931,0.754 -8.818,1.649 3.953,-1.203 6.834,-0.816 8.845,0.092 
1.026,0.462 1.8,1.06 2.503,1.729 0.697,0.67 1.291,1.408 1.852,2.168 1.12,1.521 2.111,3.116 3.469,4.482 1.357,1.378 3.066,2.521 5.601,3.314 4.256,1.332 7.996,3.339 10.734,5.947 -1.635,-1.537 -2.517,-3.157 
-3.122,-4.998 -0.606,-1.823 -0.9,-3.83 -1.409,-5.833 -0.515,-1.992 -1.262,-3.998 -2.924,-5.633 -1.649,-1.623 -4.259,-2.882 -8.181,-3.065 z"
             id="path88" />
          <path
             style="fill:#cf293a"
             inkscape:connector-curvature="0"
             d="m 292.26,904.61 c 1.026,0.462 1.8,1.06 2.503,1.729 0.421,0.405 0.798,0.84 1.16,1.284 0.966,-0.081 1.94,-0.132 2.926,-0.132 4.427,0 8.66,0.835 12.562,2.341 -0.504,-1.446 -1.229,-2.846 -2.447,-4.045 -1.65,-1.624 
-4.26,-2.883 -8.182,-3.066 -1.436,-0.072 -2.863,-0.084 -4.279,-0.057 -0.67,0.012 -1.337,0.035 -2.002,0.066 -1.972,0.213 -3.9,0.567 -5.775,1.057 1.393,0.076 2.567,0.387 3.534,0.823 z"
             id="path90" />
          <path
             style="fill:#fae6ff"
             inkscape:connector-curvature="0"
             d="m 318.244,906.64 c -5.771,-2.587 -11.73,-3.646 -17.461,-3.919 3.922,0.184 6.532,1.442 8.182,3.066 1.662,1.635 2.409,3.641 2.924,5.633 0.509,2.003 0.802,4.01 1.409,5.833 0.605,1.841 1.487,3.461 3.122,4.998 
2.745,2.611 4.527,5.802 5.451,9.558 -0.559,-2.214 -0.276,-3.914 0.339,-5.763 0.617,-1.831 1.59,-3.729 2.304,-5.813 0.703,-2.072 1.154,-4.358 0.414,-6.792 -0.371,-1.209 -1.046,-2.451 -2.134,-3.632 -1.086,-1.178 
-2.594,-2.284 -4.55,-3.169 z"
             id="path92" />
          <path
             style="fill:#ffcf47"
             inkscape:connector-curvature="0"
             d="m 333.023,919.306 c -1.787,-2.835 -4.022,-5.419 -6.566,-7.541 -2.535,-2.138 -5.339,-3.834 -8.213,-5.125 1.957,0.886 3.465,1.991 4.549,3.17 1.088,1.181 1.763,2.423 2.134,3.632 0.741,2.434 0.29,4.72 -0.414,6.792 
-0.714,2.083 -1.687,3.981 -2.304,5.813 -0.615,1.849 -0.898,3.549 -0.339,5.763 0.47,1.872 0.707,3.877 0.773,5.96 0.015,0.521 0.018,1.047 0.009,1.576 -0.011,0.563 -0.029,1.146 -0.054,1.712 -0.047,1.139 -0.126,2.264 
-0.243,3.368 0.137,-1.319 0.454,-2.433 0.929,-3.409 0.239,-0.488 0.517,-0.941 0.825,-1.367 0.313,-0.428 0.653,-0.783 1.02,-1.148 1.462,-1.437 3.348,-2.626 5.149,-4.048 1.789,-1.422 3.512,-3.076 4.362,-5.505 
0.419,-1.213 0.612,-2.622 0.405,-4.243 -0.208,-1.619 -0.813,-3.462 -2.022,-5.4 z"
             id="path94" />
          <path
             style="fill:#d67831"
             inkscape:connector-curvature="0"
             d="m 323.968,911.37 c 0.426,0.689 0.748,1.386 0.958,2.071 0.608,1.997 0.408,3.894 -0.07,5.655 3.436,3.815 6.041,8.389 7.542,13.435 0.938,-1.002 1.743,-2.157 2.243,-3.584 0.339,-0.981 0.518,-2.1 0.468,-3.348 
-2.593,-5.556 -6.423,-10.417 -11.141,-14.229 z"
             id="path96" />
          <path
             style="fill:none;stroke:#ffffff;stroke-width:1.44000006;stroke-linecap:round;stroke-linejoin:round;stroke-miterlimit:10"
             inkscape:connector-curvature="0"
             stroke-miterlimit="10"
             d="m 259.221,945.866 c -0.271,8.5 2.66,17.125 8.791,23.85 13.166,14.441 39.508,17.058 55.449,5.708 15.68,-11.164 19.476,-37.158 10.938,-53.708 -8.659,-16.783 -30.229,-21.778 -47.658,-18.064 -9.265,1.976 
-17.225,7.525 -22.067,15.648 -2.616,4.388 -4.221,9.311 -5.159,14.316 -1.162,6.195 -0.102,10.831 -0.294,12.25 1.563,-8.226 5.135,-16.591 10.816,-22.851 7.225,-7.959 17.929,-9.343 28.36,-8.522 8.761,0.689 17.833,6.181 
21.362,12.804 4.274,8.021 3.658,19.902 -0.236,27.896 -7.801,16.014 -39.18,13.127 -42.49,-4.951 -1.522,-8.311 2.855,-16.819 11.002,-19.78 8.576,-3.117 19.971,2.616 18.142,12.88 -0.921,5.309 -8.825,10.115 
-12.949,4.955 -1.705,-2.136 -1.481,-5.174 1.648,-6.673 1.88,-0.9 2.023,2.015 3.557,2.331 1.534,0.317 3.204,-1.187 3.781,-3.221 1.018,-3.594 -2.266,-7.152 -5.515,-7.867 -3.143,-0.81 -6.63,0.302 -9.04,2.423 
-1.928,1.687 1.681,-1.479 0,0 -6.884,6.022 -4.454,17.22 3.511,21.022 5.573,2.661 12.768,1.359 16.705,-3.304 4.16,-4.928 3.195,-13.802 -4.878,-19.582"
             id="path98" />
        </g>
        <g
           style="opacity:0.75"
           clip-path="url(#SVGID_2_)"
           id="g100">
          <path
             style="fill:#ffffff"
             inkscape:connector-curvature="0"
             d="m 280.238,911.447 c 2.398,-1.381 5.125,-2.13 7.841,-2.713 2.735,-0.54 5.527,-0.814 8.335,-0.872 5.611,-0.101 11.316,0.763 16.726,2.854 5.377,2.109 10.404,5.729 13.908,10.653 1.769,2.443 3.11,5.167 4.073,8.016 
0.945,2.73 1.644,5.635 2.017,8.576 0.767,5.886 0.181,12.092 -2.049,17.765 -2.178,5.681 -5.859,10.813 -10.641,14.699 -4.764,3.896 -10.722,6.478 -17.038,7.073 -6.026,0.485 -12.069,-0.143 -17.881,-2.136 -5.76,-2.004 
-11.237,-5.534 -15.146,-10.617 -1.935,-2.536 -3.442,-5.43 -4.386,-8.479 -0.954,-3.048 -1.363,-6.229 -1.295,-9.337 0.036,-1.571 0.176,-3.063 0.431,-4.639 0.1,-0.604 0.27,-1.527 0.451,-2.258 0.174,-0.759 0.39,-1.511 
0.625,-2.256 0.947,-2.979 2.38,-5.833 4.268,-8.347 1.874,-2.521 4.175,-4.713 6.753,-6.462 2.581,-1.751 5.447,-3.03 8.419,-3.846 5.942,-1.621 12.4,-1.297 18.035,1.091 2.815,1.221 5.364,2.845 7.613,4.961 2.228,2.12 
3.976,4.692 5.144,7.47 2.293,5.565 2.297,11.971 -0.189,17.284 -1.247,2.643 -3.105,4.965 -5.364,6.699 -2.278,1.716 -4.903,2.855 -7.598,3.411 5.16,-1.945 9.286,-6.021 10.836,-10.966 1.62,-4.902 1.013,-10.36 
-1.346,-14.723 -1.146,-2.197 -2.724,-4.132 -4.608,-5.647 -1.881,-1.501 -4.129,-2.708 -6.424,-3.481 -4.612,-1.595 -9.715,-1.571 -14.279,-0.029 -4.563,1.539 -8.563,4.517 -11.207,8.394 -1.322,1.938 -2.323,4.087 
-2.976,6.354 -0.16,0.567 -0.308,1.14 -0.423,1.723 -0.127,0.606 -0.196,1.035 -0.301,1.787 -0.15,1.138 -0.237,2.387 -0.226,3.561 -0.022,4.757 1.453,9.292 4.31,12.898 2.822,3.638 6.941,6.32 11.521,7.908 4.565,1.62 
9.668,2.165 14.573,1.826 4.644,-0.33 9.206,-2.241 13.04,-5.141 3.843,-2.907 6.931,-6.879 8.839,-11.385 1.905,-4.509 2.711,-9.514 2.36,-14.537 -0.177,-2.52 -0.619,-5.013 -1.328,-7.514 -0.672,-2.387 -1.641,-4.701 
-2.917,-6.827 -2.551,-4.271 -6.53,-7.668 -11.173,-9.984 -4.633,-2.374 -9.895,-3.661 -15.232,-4.208 -2.676,-0.271 -5.387,-0.318 -8.091,-0.132 -2.702,0.183 -5.419,0.574 -8,1.533 z"
             id="path102" />
        </g>
      </g>
      <g
         id="g104">
        <circle
           d="m 338.85001,942.49103 c 0,22.09139 -17.90861,40 -40,40 -22.09139,0 -40,-17.90861 -40,-40 0,-22.09139 17.90861,-40 40,-40 22.09139,0 40,17.90861 40,40 z"
           style="fill:none;stroke:#b51c4d;stroke-width:3;stroke-miterlimit:10"
           sodipodi:ry="40"
           sodipodi:rx="40"
           sodipodi:cy="942.49103"
           sodipodi:cx="298.85001"
           stroke-miterlimit="10"
           cx="298.85001"
           cy="942.49103"
           r="40"
           id="circle106" />
      </g>
      <ellipse
         d="m 301.58999,973.80902 c 0,1.933 -1.82802,3.5 -4.083,3.5 -2.25498,0 -4.083,-1.567 -4.083,-3.5 0,-1.933 1.82802,-3.5 4.083,-3.5 2.25498,0 4.083,1.567 4.083,3.5 z"
         style="fill:#ffffff"
         sodipodi:ry="3.5"
         sodipodi:rx="4.0830002"
         sodipodi:cy="973.80902"
         sodipodi:cx="297.50699"
         cx="297.50699"
         cy="973.80902"
         rx="4.0830002"
         ry="3.5"
         id="ellipse108" />
      <ellipse
         d="m 300.37499,921.30902 c 0,1.35807 -1.28405,2.459 -2.868,2.459 -1.58395,0 -2.868,-1.10093 -2.868,-2.459 0,-1.35807 1.28405,-2.459 2.868,-2.459 1.58395,0 2.868,1.10093 2.868,2.459 z"
         style="fill:#ffffff"
         sodipodi:ry="2.4590001"
         sodipodi:rx="2.868"
         sodipodi:cy="921.30902"
         sodipodi:cx="297.50699"
         cx="297.50699"
         cy="921.30902"
         rx="2.868"
         ry="2.4590001"
         id="ellipse110" />
      <ellipse
         d="m 299.01699,961.14203 c 0,0.71466 -0.67605,1.294 -1.51,1.294 -0.83395,0 -1.51,-0.57934 -1.51,-1.294 0,-0.71466 0.67605,-1.294 1.51,-1.294 0.83395,0 1.51,0.57934 1.51,1.294 z"
         style="fill:#ffffff"
         sodipodi:ry="1.294"
         sodipodi:rx="1.51"
         sodipodi:cy="961.14203"
         sodipodi:cx="297.50699"
         cx="297.50699"
         cy="961.14203"
         rx="1.51"
         ry="1.294"
         id="ellipse112" />
      <ellipse
         d="m 299.01699,936.51703 c 0,0.71466 -0.67605,1.294 -1.51,1.294 -0.83395,0 -1.51,-0.57934 -1.51,-1.294 0,-0.71466 0.67605,-1.294 1.51,-1.294 0.83395,0 1.51,0.57934 1.51,1.294 z"
         style="fill:#ffffff"
         sodipodi:ry="1.294"
         sodipodi:rx="1.51"
         sodipodi:cy="936.51703"
         sodipodi:cx="297.50699"
         cx="297.50699"
         cy="936.51703"
         rx="1.51"
         ry="1.294"
         id="ellipse114" />
    </g>
  </g>
</svg>
