<?xml version="1.0" encoding="UTF-8" standalone="no"?>
<!-- Created with Inkscape (http://www.inkscape.org/) -->

<svg
   xmlns:dc="http://purl.org/dc/elements/1.1/"
   xmlns:cc="http://creativecommons.org/ns#"
   xmlns:rdf="http://www.w3.org/1999/02/22-rdf-syntax-ns#"
   xmlns:svg="http://www.w3.org/2000/svg"
   xmlns="http://www.w3.org/2000/svg"
   xmlns:xlink="http://www.w3.org/1999/xlink"
   xmlns:sodipodi="http://sodipodi.sourceforge.net/DTD/sodipodi-0.dtd"
   xmlns:inkscape="http://www.inkscape.org/namespaces/inkscape"
   width="950.17267"
   height="591.09045"
   id="svg2"
   version="1.1"
   inkscape:version="0.48.4 r"
   sodipodi:docname="country field2.svg"
   inkscape:export-filename="E:\SHAHZAIB ALI\android\background\country field.png"
   inkscape:export-xdpi="90"
   inkscape:export-ydpi="90">
  <defs
     id="defs4">
    <linearGradient
       id="linearGradient3775">
      <stop
         style="stop-color:#3caaff;stop-opacity:1;"
         offset="0"
         id="stop3777" />
      <stop
         style="stop-color:#ffffff;stop-opacity:1;"
         offset="1"
         id="stop3779" />
    </linearGradient>
    <linearGradient
       id="linearGradient3767">
      <stop
         style="stop-color:#00ccff;stop-opacity:1;"
         offset="0"
         id="stop3769" />
      <stop
         style="stop-color:#a3edff;stop-opacity:1;"
         offset="1"
         id="stop3771" />
    </linearGradient>
    <linearGradient
       inkscape:collect="always"
       xlink:href="#linearGradient3775"
       id="linearGradient3781"
       x1="290"
       y1="266.64789"
       x2="292.85715"
       y2="639.50507"
       gradientUnits="userSpaceOnUse"
       gradientTransform="translate(309.71277,-83.4386)" />
  </defs>
  <sodipodi:namedview
     id="base"
     pagecolor="#ffffff"
     bordercolor="#666666"
     borderopacity="1.0"
     inkscape:pageopacity="0.0"
     inkscape:pageshadow="2"
     inkscape:zoom="0.70710678"
     inkscape:cx="642.05158"
     inkscape:cy="42.206849"
     inkscape:document-units="px"
     inkscape:current-layer="layer1"
     showgrid="false"
     inkscape:window-width="1920"
     inkscape:window-height="1018"
     inkscape:window-x="-8"
     inkscape:window-y="-8"
     inkscape:window-maximized="1"
     fit-margin-top="-3"
     fit-margin-left="-3"
     fit-margin-right="-3"
     fit-margin-bottom="-3" />
  <metadata
     id="metadata7">
    <rdf:RDF>
      <cc:Work
         rdf:about="">
        <dc:format>image/svg+xml</dc:format>
        <dc:type
           rdf:resource="http://purl.org/dc/dcmitype/StillImage" />
        <dc:title />
      </cc:Work>
    </rdf:RDF>
  </metadata>
  <g
     inkscape:label="Layer 1"
     inkscape:groupmode="layer"
     id="layer1"
     transform="translate(-96.540129,-194.78073)">
    <rect
       style="fill:url(#linearGradient3781);fill-opacity:1;stroke:none"
       id="rect3765"
       width="955.71429"
       height="298.57141"
       x="93.998489"
       y="191.78073" />
    <path
       style="fill:#aade87;fill-opacity:1;stroke:none"
       d="m 1049.1503,421.15515 0,8.625 c 0.2168,-1.22898 0.5625,-2.43064 0.5625,-3.71875 0,-1.67899 -0.2214,-3.3169 -0.5625,-4.90625 z"
       id="path4145"
       inkscape:connector-curvature="0" />
    <path
       style="fill:#aade87;fill-opacity:1;stroke:none"
       d="m 724.71277,393.21765 c -17.73257,0 -32.96148,9.89297 -40.78125,24.28125 -4.11891,-1.79052 -8.6567,-2.875 -13.5,-2.875 -15.85488,0 -28.95911,10.74972 -31.59375,24.84375 -2.52176,-0.33142 -5.06962,-0.53125 -7.6875,-0.53125 -13.30256,0 -25.35748,4.58829 -34.9375,11.96875 3.0569,-4.39026 4.9375,-9.42007 4.9375,-14.84375 0,-16.56855 -16.31856,-30 -36.4375,-30 -16.45168,0 -30.19636,9.04143 -34.71875,21.375 -9.45485,-6.15235 -21.07768,-9.9375 -33.84375,-9.9375 -19.56763,0 -36.81535,8.57326 -46.9375,21.59375 -0.55508,-0.0368 -1.09185,-0.15625 -1.65625,-0.15625 -8.69439,0 -16.33337,4.42174 -20.8125,11.15625 -3.12612,-2.05004 -6.43235,-3.88114 -9.90625,-5.46875 1.80946,-3.27613 2.875,-6.87153 2.875,-10.6875 0,-14.59609 -14.69725,-26.4375 -32.84375,-26.4375 -18.1465,0 -32.875,11.84141 -32.875,26.4375 0,3.04213 0.79279,5.90507 1.96875,8.625 -10.49024,3.95147 -19.70368,10.07913 -27.03125,17.71875 -4.50705,-10.83158 -15.53531,-18.5 -28.5,-18.5 -9.22103,0 -17.40132,3.95908 -23.03125,10.09375 -6.33872,-4.16015 -13.4379,-7.21263 -21.0625,-9 2.96471,-2.69643 4.8125,-6.33783 4.8125,-10.375 0,-8.28427 -7.68851,-15 -17.15625,-15 -9.33387,0 -16.88094,6.53386 -17.09375,14.65625 -7.26927,-2.91622 -15.80316,-4.65625 -25.03125,-4.65625 -24.42667,0 -44.29716,11.85656 -46.6875,27 -3.83336,-0.76249 -7.79917,-1.28125 -11.90625,-1.28125 -6.04992,0 -11.75353,1.04699 -17.15625,2.65625 0.42506,-1.30713 0.75,-2.66734 0.75,-4.09375 0,-8.28427 -7.68852,-15 -17.15625,-15 -7.28499,0 -13.455031,3.98639 -15.937501,9.59375 l 0,189.6875 955.375031,0 0,-196.90625 c -1.0169,-0.26922 -1.9626,-0.68562 -3,-0.90625 1.5609,-2.58602 2.4698,-5.46346 3,-8.46875 l 0,-8.625 c -2.5446,-11.85406 -14.086,-20.8125 -28,-20.8125 -15.7796,0 -28.59378,11.51714 -28.59378,25.71875 0,0.39539 0.10538,0.76522 0.125,1.15625 -4.47588,-1.60796 -9.31918,-2.59375 -14.40625,-2.59375 -22.09139,0 -40,16.64282 -40,37.15625 0,0.97241 0.23348,1.89015 0.3125,2.84375 -3.30817,-0.82254 -6.72492,-1.40625 -10.3125,-1.40625 -3.60139,0 -7.02415,0.57757 -10.34375,1.40625 l -6.3125,0 c -4.7331,-15.61212 -20.01726,-27.125 -38.34375,-27.125 -6.22336,0 -12.02865,1.42676 -17.28125,3.78125 -2.40508,-3.07982 -5.02148,-5.84292 -7.90625,-8.21875 -3.24831,-14.40212 -34.29146,-34.125 -55.53125,-34.125 -10.5626,0 -22.84447,4.01323 -33.09375,9.9375 -8.50883,-9.5298 -20.85005,-15.65625 -34.75,-15.65625 z m -137.75,66.4375 c -0.56907,0.70336 -1.15554,1.39434 -1.6875,2.125 -0.18791,-0.21833 -0.33826,-0.47432 -0.53125,-0.6875 0.79085,-0.42992 1.47263,-0.95949 2.21875,-1.4375 z"
       id="rect3981"
       inkscape:connector-curvature="0" />
    <path
       style="fill:#8dd35f;fill-opacity:1;stroke:none"
       d="m 1049.1503,538.4989 c -1.0546,-0.16419 -2.1346,-0.28125 -3.2458,-0.28125 -9.8303,0 -17.8203,6.71573 -17.8203,15 0,1.42124 0.3107,2.75959 0.749,4.0625 -5.6013,-1.60387 -11.5186,-2.65625 -17.7891,-2.65625 -4.1849,0 -8.2282,0.48362 -12.14035,1.21875 -2.50663,-15.12768 -23.34227,-26.90625 -48.68606,-26.90625 -9.57939,0 -18.4505,1.74121 -25.99711,4.65625 -0.22097,-8.12239 -8.06661,-14.65625 -17.75793,-14.65625 -9.83032,0 -17.78914,6.71573 -17.78914,15 0,4.03933 1.91229,7.67817 4.99344,10.375 -7.9174,1.78614 -15.29508,4.84067 -21.87752,9 -5.84582,-6.1433 -14.32419,-10.09375 -23.9061,-10.09375 -13.44955,0 -24.92995,7.65204 -29.61736,18.46875 -7.60174,-7.62574 -17.14982,-13.74004 -28.0257,-17.6875 1.22512,-2.72401 1.99738,-5.60875 1.99738,-8.65625 0,-14.59609 -15.27,-26.40625 -34.11146,-26.40625 -18.84144,0 -34.11145,11.81016 -34.11145,26.40625 0,3.81303 1.08883,7.41335 2.96486,10.6875 -3.60577,1.58791 -7.02302,3.44991 -10.26777,5.5 -4.65079,-6.73377 -12.60108,-11.1875 -21.62785,-11.1875 -0.5906,0 -1.13573,0.15011 -1.71649,0.1875 -10.51009,-13.01894 -28.40172,-21.59375 -48.71728,-21.59375 -13.25715,0 -25.32359,3.78331 -35.14135,9.9375 -4.68999,-12.34075 -18.95824,-21.375 -36.04641,-21.375 -20.88943,0 -37.82533,13.43145 -37.82533,30 0,5.22567 1.84432,10.06518 4.80619,14.34375 -9.87557,-7.1748 -22.35554,-11.5 -35.95279,-11.5 -2.72317,0 -5.36652,0.22987 -7.98951,0.5625 -2.73553,-14.09403 -16.33861,-24.84375 -32.80067,-24.84375 -5.02594,0 -9.73806,1.08638 -14.01285,2.875 -8.11646,-14.39683 -23.9323,-24.3125 -42.35064,-24.3125 -14.43758,0 -27.24272,6.15162 -36.07762,15.6875 -10.63845,-5.91906 -23.39986,-9.96875 -34.36113,-9.96875 -22.03751,0 -54.26279,19.72553 -57.67426,34.125 -2.9871,2.37078 -5.74763,5.14754 -8.23918,8.21875 -5.44214,-2.34206 -11.47045,-3.75 -17.91398,-3.75 -19.02867,0 -34.87743,11.51245 -39.79149,27.125 l -6.55389,0 c -3.44905,-0.82988 -7.02499,-1.4375 -10.76711,-1.4375 -3.71461,0 -7.2472,0.58812 -10.67349,1.40625 0.0809,-0.94686 0.31209,-1.84711 0.31209,-2.8125 0,-20.51343 -18.60178,-37.15625 -41.5392,-37.15625 -5.28683,0 -10.29823,0.98292 -14.94911,2.59375 0.0204,-0.39074 0.12483,-0.76115 0.12483,-1.15625 0,-14.20161 -13.29591,-25.71875 -29.679771,-25.71875 -1.97257,0 -3.87759,0.18164 -5.74246,0.5 l 0,235.21875 955.339221,0 0,-199 z m -498.81373,22.5625 c 0.78477,0.48561 1.50811,1.03257 2.34067,1.46875 -0.20252,0.21536 -0.36463,0.46688 -0.56176,0.6875 -0.56066,-0.74193 -1.17853,-1.44246 -1.77891,-2.15625 z"
       id="path4142"
       inkscape:connector-curvature="0" />
    <path
       style="fill:#784421;fill-opacity:1;stroke:none"
       d="m 93.540129,655.7763 c 9.695311,0.68012 19.520701,1.30593 29.463621,1.88044 7.64541,0.44176 15.36031,6.91411 23.13899,7.29659 5.08069,0.24983 10.18861,-5.57362 15.32213,-5.34811 186.4383,8.18993 406.66984,0.5978 584.53038,-4.37701 6.46951,-0.18095 14.90629,2.67201 21.26001,2.49887 8.52757,-0.23239 14.92423,-3.48739 23.22777,-3.70197 32.30654,-0.83485 63.06052,-5.38434 91.10956,-1.92553 22.84676,2.81731 42.38699,1.77638 59.7373,-0.39384 46.80007,-5.85388 84.42511,1.69174 108.06491,5.49913 l 0,98.99495 -955.854671,-1.42857 z"
       id="rect4151"
       inkscape:connector-curvature="0"
       sodipodi:nodetypes="csssssssscccc" />
    <path
       style="fill:#784421;fill-opacity:1;stroke:none"
       d="m 203.28419,661.78072 c 19.52381,-6.17202 39.04762,-5.24064 58.57143,0 l 0,17.14286 -58.57143,0 z"
       id="rect4172"
       inkscape:connector-curvature="0"
       sodipodi:nodetypes="ccccc" />
    <path
       style="fill:#784421;fill-opacity:1;stroke:none"
       d="m 354.71276,663.92415 c 19.52382,-10.9317 136.19049,-15.02669 155.7143,-1.42857 l 161.42857,5 c -54.06931,-30.60602 -178.10355,0.007 -272.85715,5 z"
       id="rect4172-1"
       inkscape:connector-curvature="0"
       sodipodi:nodetypes="ccccc" />
    <path
       style="fill:#804a23;fill-opacity:1;stroke:none"
       d="m 93.659359,669.28396 c 9.689851,0.68012 19.509721,1.30593 29.447041,1.88044 7.64111,0.44176 15.35167,6.91411 23.12598,7.29659 5.07783,0.24983 10.18288,-5.57362 15.31351,-5.34811 186.33343,8.18993 406.4411,0.5978 584.20159,-4.37701 6.46587,-0.18095 14.89791,2.67201 21.24804,2.49887 8.52278,-0.23239 14.91584,-3.48739 23.21471,-3.70197 32.28837,-0.83485 70.17461,16.04423 98.20787,19.50304 22.83391,2.81731 35.21359,3.20495 52.55414,1.03473 46.77374,-5.85388 84.37766,-21.1654 108.00406,-17.35801 l 0,98.99495 -955.316941,-1.42857 z"
       id="rect4151-7"
       inkscape:connector-curvature="0"
       sodipodi:nodetypes="csssssssscccc" />
    <path
       style="fill:#804a23;fill-opacity:1;stroke:none"
       d="m 315.84335,674.38051 c 19.52382,-6.17202 39.04763,-5.24064 58.57144,0 l 0,17.14286 -58.57144,0 z"
       id="rect4172-11"
       inkscape:connector-curvature="0"
       sodipodi:nodetypes="ccccc" />
    <path
       style="fill:#804a23;fill-opacity:1;stroke:none"
       d="m 467.27193,676.52394 c 19.52382,-10.9317 136.19048,-15.02669 155.71429,-1.42857 l 161.42857,5 c -54.06931,-30.60602 -178.10355,0.007 -272.85715,5 z"
       id="rect4172-1-5"
       inkscape:connector-curvature="0"
       sodipodi:nodetypes="ccccc" />
    <path
       style="fill:#804a23;fill-opacity:1;stroke:none"
       d="m 831.96167,679.00976 c 47.28887,-0.99208 107.8466,-3.80768 130.00187,-9.05386 14.44779,-3.42111 10.69435,9.30972 13.94487,17.13508 l -32.82996,28.28427 -111.11678,0 z"
       id="rect4268"
       inkscape:connector-curvature="0"
       sodipodi:nodetypes="cscccc" />
    <path
       style="fill:#7f4e2d;fill-opacity:1;stroke:none"
       d="m 93.565209,688.44768 c 9.694441,0.68012 19.518931,1.30593 29.460941,1.88044 7.64472,0.44176 15.35891,6.91411 23.13689,7.29659 5.08023,0.24983 10.18768,-5.57362 15.32073,-5.34811 186.42134,8.18993 406.63285,0.5978 584.47721,-4.37701 6.46892,-0.18095 14.90493,2.67201 21.25806,2.49887 8.5268,-0.23239 14.92288,-3.48739 23.22566,-3.70197 32.30361,-0.83485 70.20773,16.04423 98.2542,19.50304 22.84469,2.81731 35.23019,3.20495 52.57894,1.03473 46.79581,-5.85388 84.41746,-21.1654 108.05506,-17.35801 l 0,98.99495 -955.767691,-1.42857 z"
       id="rect4151-7-6"
       inkscape:connector-curvature="0"
       sodipodi:nodetypes="csssssssscccc" />
    <path
       style="opacity:0.52466371;fill:#784421;fill-opacity:1;stroke:none"
       d="m 384.73666,742.33111 c 1.9816,12.44153 -49.21783,1.52076 -123.68804,1.52076 -74.47021,0 -143.92834,10.90735 -145.99244,-1.52076 -1.31575,-7.92223 16.49895,3.20584 75.46142,-7.68295 16.43645,-3.03538 36.07041,-7.78164 59.37882,-15.12837 7.07847,-2.23111 36.98868,15.32328 69.95926,15.54532 73.05623,0.49201 176.99366,-12.7642 193.06573,-10.01262 33.84638,5.79459 -129.2459,10.61612 -128.18475,17.27862 z"
       id="path4291"
       inkscape:connector-curvature="0"
       sodipodi:nodetypes="ssssssss" />
    <path
       style="opacity:0.52466371;fill:#784421;fill-opacity:1;stroke:none"
       d="m 852.27164,699.87338 c 1.9816,12.44153 -49.21783,1.52076 -123.68804,1.52076 -74.47021,0 -143.92834,10.90735 -145.99244,-1.52076 -1.31575,-7.92223 16.49895,3.20584 75.46141,-7.68295 16.43646,-3.03538 36.07042,-7.78164 59.37883,-15.12837 7.07847,-2.23111 36.98868,15.32328 69.95926,15.54532 73.05623,0.49201 176.99366,-12.7642 193.06573,-10.01262 33.84641,5.79459 -129.2459,10.61612 -128.18475,17.27862 z"
       id="path4291-1"
       inkscape:connector-curvature="0"
       sodipodi:nodetypes="ssssssss" />
    <path
       style="opacity:0.52466371;fill:#784421;fill-opacity:1;stroke:none"
       d="m 875.43348,756.01792 c -11.67254,3.80972 164.73082,-58.61113 134.84022,-20.2767 -23.21841,29.77752 -264.7267,58.15402 -289.44642,32.89142 -17.43476,-17.81762 -78.57617,-5.66727 -78.57617,-12.61472 0,-9.14479 -97.07167,-27.671 -67.15389,-37.07393 22.52495,-7.07943 150.77442,19.44145 183.74508,6.65884 14.56308,-5.64605 26.58062,19.86824 46.11499,24.07168 37.4961,8.06847 80.91479,2.93643 70.47619,6.34341 z"
       id="path4319"
       inkscape:connector-curvature="0"
       sodipodi:nodetypes="ssssssss" />
    <path
       sodipodi:type="arc"
       style="opacity:0.52466371;fill:#784421;fill-opacity:1;stroke:none"
       id="path4322"
       sodipodi:cx="204.79495"
       sodipodi:cy="938.8125"
       sodipodi:rx="111.522"
       sodipodi:ry="6.0830183"
       d="m 316.31696,938.8125 c 0,3.35956 -49.93011,6.08302 -111.52201,6.08302 -61.5919,0 -111.522001,-2.72346 -111.522001,-6.08302 0,-3.35956 49.930101,-6.08302 111.522001,-6.08302 61.5919,0 111.52201,2.72346 111.52201,6.08302 z"
       transform="translate(293.49139,-174.68388)" />
    <path
       id="path4326-2"
       style="fill:#ffffff;fill-opacity:0.5080214;stroke:none"
       d="m 354.62013,260.02557 c 0,14.15232 -20.70683,25.62504 -46.24999,25.62504 -25.54317,0 -46.25,-11.47272 -46.25,-25.62504 0,-14.15231 20.70683,-25.62503 46.25,-25.62503 25.54316,0 46.24999,11.47272 46.24999,25.62503 z M 165.8188,284.36935 c 0,3.53808 -4.53849,6.40626 -10.13699,6.40626 -5.5985,0 -10.13698,-2.86818 -10.13698,-6.40626 0,-3.53808 4.53848,-6.40626 10.13698,-6.40626 5.5985,0 10.13699,2.86818 10.13699,6.40626 z m 41.81506,-4.69792 c 0,6.60442 -11.06255,11.95835 -24.7089,11.95835 -13.64635,0 -24.70891,-5.35393 -24.70891,-11.95835 0,-6.60441 11.06256,-11.95835 24.70891,-11.95835 13.64635,0 24.7089,5.35394 24.7089,11.95835 z m 169.16093,5.97917 c 0,8.96313 -45.83828,5.97917 -107.07191,5.97917 -61.23361,0 -118.476,3.83813 -118.476,-5.125 0,-8.96313 53.44102,-17.08336 114.67463,-17.08336 61.23363,0 110.87328,7.26606 110.87328,16.22919 z M 310.9044,240.3797 c 0,14.15232 -20.70683,25.62504 -46.24999,25.62504 -25.54317,0 -46.25,-11.47272 -46.25,-25.62504 0,-14.15231 20.70683,-25.62503 46.25,-25.62503 25.54316,0 46.24999,11.47272 46.24999,25.62503 z m -38.0137,22.20839 c 0,14.62406 -19.0049,26.47919 -42.44863,26.47919 -23.44372,0 -42.44862,-11.85513 -42.44862,-26.47919 0,-14.62406 19.0049,-26.47921 42.44862,-26.47921 23.44373,0 42.44863,11.85515 42.44863,26.47921 z"
       inkscape:connector-curvature="0" />
    <path
       inkscape:connector-curvature="0"
       id="path4326-2-2"
       style="fill:#ffffff;fill-opacity:0.5080214;stroke:none"
       d="m 589.95899,254.35861 c 0,9.35065 -12.89958,16.93084 -28.81201,16.93084 -15.91244,0 -28.81201,-7.58019 -28.81201,-16.93084 0,-9.35063 12.89957,-16.93083 28.81201,-16.93083 15.91243,0 28.81201,7.5802 28.81201,16.93083 z M 472.34285,270.4429 c 0,2.33767 -2.82731,4.23271 -6.31496,4.23271 -3.48766,0 -6.31496,-1.89504 -6.31496,-4.23271 0,-2.33766 2.8273,-4.2327 6.31496,-4.2327 3.48765,0 6.31496,1.89504 6.31496,4.2327 z m 26.04921,-3.10398 c 0,4.36363 -6.89155,7.90106 -15.39271,7.90106 -8.50117,0 -15.39272,-3.53743 -15.39272,-7.90106 0,-4.36363 6.89155,-7.90106 15.39272,-7.90106 8.50116,0 15.39271,3.53743 15.39271,7.90106 z m 105.3809,3.95053 c 0,5.92207 -28.55553,3.95052 -66.70177,3.95052 -38.14624,0 -73.8061,2.53591 -73.8061,-3.38616 0,-5.92207 33.29175,-11.28723 71.43799,-11.28723 38.14624,0 69.06988,4.80079 69.06988,10.72287 z M 562.72573,241.3783 c 0,9.35065 -12.89958,16.93084 -28.81201,16.93084 -15.91243,0 -28.81201,-7.58019 -28.81201,-16.93084 0,-9.35064 12.89958,-16.93083 28.81201,-16.93083 15.91243,0 28.81201,7.58019 28.81201,16.93083 z m -23.68111,14.6734 c 0,9.66233 -11.83933,17.4952 -26.4439,17.4952 -14.60456,0 -26.4439,-7.83287 -26.4439,-17.4952 0,-9.66232 11.83934,-17.49519 26.4439,-17.49519 14.60457,0 26.4439,7.83287 26.4439,17.49519 z" />
    <path
       id="path4533"
       style="fill:#ffffff;fill-opacity:0.59358287;stroke:none"
       d="m 964.65106,313.98527 c 0,14.55808 -54.4692,26.35974 -121.66037,26.35974 -67.19117,0 -121.66037,-11.80166 -121.66037,-26.35974 0,-14.55809 54.4692,-26.35975 121.66037,-26.35975 67.19117,0 121.66037,11.80166 121.66037,26.35975 z M 926.1253,285.59784 c 0,12.31839 -13.61731,22.30441 -30.4151,22.30441 -16.79779,0 -30.41509,-9.98602 -30.41509,-22.30441 0,-12.31838 13.6173,-22.3044 30.41509,-22.3044 16.79779,0 30.4151,9.98602 30.4151,22.3044 z m -121.66037,6.08302 c 0,12.31839 -13.61731,22.30441 -30.4151,22.30441 -16.79779,0 -30.41509,-9.98602 -30.41509,-22.30441 0,-12.31838 13.6173,-22.3044 30.41509,-22.3044 16.79779,0 30.4151,9.98602 30.4151,22.3044 z m -54.74716,4.05535 c 0,12.31839 -13.61731,22.30441 -30.4151,22.30441 -16.79779,0 -30.41509,-9.98602 -30.41509,-22.30441 0,-12.31838 13.6173,-22.3044 30.41509,-22.3044 16.79779,0 30.4151,9.98602 30.4151,22.3044 z m 13.17986,19.26289 c 0,12.31839 -13.61731,22.30441 -30.4151,22.30441 -16.79779,0 -30.41509,-9.98602 -30.41509,-22.30441 0,-12.31838 13.6173,-22.3044 30.41509,-22.3044 16.79779,0 30.4151,9.98602 30.4151,22.3044 z m 124.70189,-64.88553 c 0,29.6761 -30.41198,53.73333 -67.92704,53.73333 -37.51507,0 -67.92704,-24.05723 -67.92704,-53.73333 0,-29.6761 30.41197,-53.73333 67.92704,-53.73333 37.51506,0 67.92704,24.05723 67.92704,53.73333 z"
       inkscape:connector-curvature="0" />
  </g>
</svg>
