<?xml version="1.0" encoding="UTF-8" standalone="no"?>
<!-- Created with Inkscape (http://www.inkscape.org/) -->

<svg
   xmlns:dc="http://purl.org/dc/elements/1.1/"
   xmlns:cc="http://creativecommons.org/ns#"
   xmlns:rdf="http://www.w3.org/1999/02/22-rdf-syntax-ns#"
   xmlns:svg="http://www.w3.org/2000/svg"
   xmlns="http://www.w3.org/2000/svg"
   xmlns:sodipodi="http://sodipodi.sourceforge.net/DTD/sodipodi-0.dtd"
   xmlns:inkscape="http://www.inkscape.org/namespaces/inkscape"
   width="68.853226"
   height="68.845001"
   id="svg10325"
   version="1.1"
   inkscape:version="0.48.4 r"
   sodipodi:docname="Nouveau document 2">
  <defs
     id="defs10327">
    <linearGradient
       id="SVGID_75_"
       gradientUnits="userSpaceOnUse"
       x1="44.221699"
       y1="299.6904"
       x2="44.221699"
       y2="258.4238">
      <stop
         offset="0"
         style="stop-color:#FF5248;stop-opacity:0"
         id="stop4565" />
      <stop
         offset="1"
         style="stop-color:#FFFFFF;stop-opacity:0.75"
         id="stop4567" />
    </linearGradient>
  </defs>
  <sodipodi:namedview
     id="base"
     pagecolor="#ffffff"
     bordercolor="#666666"
     borderopacity="1.0"
     inkscape:pageopacity="0.0"
     inkscape:pageshadow="2"
     inkscape:zoom="5.6"
     inkscape:cx="43.280385"
     inkscape:cy="8.5825417"
     inkscape:document-units="px"
     inkscape:current-layer="layer1"
     showgrid="false"
     fit-margin-top="3.76"
     fit-margin-left="0"
     fit-margin-right="0"
     fit-margin-bottom="3.75"
     inkscape:window-width="1920"
     inkscape:window-height="1018"
     inkscape:window-x="-8"
     inkscape:window-y="-8"
     inkscape:window-maximized="1" />
  <metadata
     id="metadata10330">
    <rdf:RDF>
      <cc:Work
         rdf:about="">
        <dc:format>image/svg+xml</dc:format>
        <dc:type
           rdf:resource="http://purl.org/dc/dcmitype/StillImage" />
        <dc:title></dc:title>
      </cc:Work>
    </rdf:RDF>
  </metadata>
  <g
     inkscape:label="Calque 1"
     inkscape:groupmode="layer"
     id="layer1"
     transform="translate(-562.71677,-326.50611)">
    <g
       transform="translate(552.92105,75.291111)"
       id="g4464">
      <g
         id="g4466">
        <path
           style="fill:#ff5248"
           inkscape:connector-curvature="0"
           d="m 77.79,295.408 c 0,18.539 -15.029,20.901 -33.568,20.901 -18.539,0 -33.568,-2.362 -33.568,-20.901 0,-18.539 12.214,-40.433 33.568,-40.433 21.354,0 33.568,21.894 33.568,40.433 z"
           id="path4468" />
        <path
           style="fill:#ffffff"
           inkscape:connector-curvature="0"
           d="m 45.222,314.31 c -18.539,0 -33.568,-2.362 -33.568,-20.901 0,-6.615 1.563,-13.654 4.534,-19.977 -3.622,6.813 -5.534,14.654 -5.534,21.977 0,18.539 15.029,20.901 33.568,20.901 14.958,0 27.625,-1.544 31.963,-11.874 -5.077,8.537 -17.028,9.874 -30.963,9.874 z"
           id="path4470" />
      </g>
      <path
         style="opacity:0.5;fill:#e83748"
         inkscape:connector-curvature="0"
         d="m 71.834,293.879 c 0,16.283 -12.363,18.358 -27.612,18.358 -15.249,0 -27.612,-2.075 -27.612,-18.358 0,-16.282 10.046,-31.236 27.612,-31.236 17.566,0 27.612,14.954 27.612,31.236 z"
         id="path4472" />
      <ellipse
         d="m 67.691999,303.728 c 0,4.92362 -10.507876,8.915 -23.469999,8.915 -12.962123,0 -23.469999,-3.99138 -23.469999,-8.915 0,-4.92362 10.507876,-8.915 23.469999,-8.915 12.962123,0 23.469999,3.99138 23.469999,8.915 z"
         style="fill:#e83748"
         sodipodi:ry="8.915"
         sodipodi:rx="23.469999"
         sodipodi:cy="303.728"
         sodipodi:cx="44.222"
         cx="44.222"
         cy="303.728"
         rx="23.469999"
         ry="8.915"
         id="ellipse4474" />
      <g
         id="g4476">
        <rect
           style="opacity:0.5;fill:#ff918f;stroke:#fff7ca;stroke-width:0.5;stroke-miterlimit:10"
           x="44.521"
           y="258.42401"
           stroke-miterlimit="10"
           width="2.47"
           height="2.4690001"
           id="rect4478" />
        <rect
           style="fill:#ff918f;stroke:#fff7ca;stroke-width:0.5;stroke-miterlimit:10"
           x="43.855"
           y="310.48801"
           stroke-miterlimit="10"
           width="2.47"
           height="2.4690001"
           id="rect4480" />
        <rect
           style="fill:#ff918f;stroke:#fff7ca;stroke-width:0.5;stroke-miterlimit:10"
           x="20.169001"
           y="264.77899"
           transform="matrix(0.7072,0.707,-0.707,0.7072,194.3408,62.7543)"
           stroke-miterlimit="10"
           width="2.47"
           height="2.47"
           id="rect4482" />
        <rect
           style="opacity:0.5;fill:#ff918f;stroke:#fff7ca;stroke-width:0.5;stroke-miterlimit:10"
           x="37.299"
           y="275.05099"
           stroke-miterlimit="10"
           width="2.4690001"
           height="2.4690001"
           id="rect4484" />
        <rect
           style="fill:#ff918f;stroke:#fff7ca;stroke-width:0.5;stroke-miterlimit:10"
           x="56.291"
           y="286.742"
           transform="matrix(0.7072,0.707,-0.707,0.7072,220.4449,43.6467)"
           stroke-miterlimit="10"
           width="2.47"
           height="2.47"
           id="rect4486" />
        <rect
           style="fill:#ff918f;stroke:#fff7ca;stroke-width:0.5;stroke-miterlimit:10"
           x="30.162001"
           y="280.63101"
           stroke-miterlimit="10"
           width="2.47"
           height="2.4690001"
           id="rect4488" />
        <rect
           style="fill:#ff918f;stroke:#fff7ca;stroke-width:0.5;stroke-miterlimit:10"
           x="34.661999"
           y="255.51401"
           stroke-miterlimit="10"
           width="2.4690001"
           height="2.4690001"
           id="rect4490" />
        <rect
           style="opacity:0.5;fill:#ff918f;stroke:#fff7ca;stroke-width:0.5;stroke-miterlimit:10"
           x="55.596001"
           y="277.64999"
           stroke-miterlimit="10"
           width="2.4690001"
           height="2.4690001"
           id="rect4492" />
        <rect
           style="fill:#ff918f;stroke:#fff7ca;stroke-width:0.5;stroke-miterlimit:10"
           x="60.846001"
           y="261.435"
           stroke-miterlimit="10"
           width="2.4690001"
           height="2.4690001"
           id="rect4494" />
        <rect
           style="opacity:0.5;fill:#ff918f;stroke:#fff7ca;stroke-width:0.5;stroke-miterlimit:10"
           x="63.771999"
           y="286.00699"
           transform="matrix(0.7068,-0.7074,0.7074,0.7068,-184.1366,130.2028)"
           stroke-miterlimit="10"
           width="2.471"
           height="2.471"
           id="rect4496" />
        <rect
           style="opacity:0.5;fill:#ff918f;stroke:#fff7ca;stroke-width:0.5;stroke-miterlimit:10"
           x="17.228001"
           y="284.48499"
           transform="matrix(0.7076,0.7066,-0.7066,0.7076,207.2914,70.4984)"
           stroke-miterlimit="10"
           width="2.4679999"
           height="2.47"
           id="rect4498" />
        <rect
           style="fill:#ff918f;stroke:#fff7ca;stroke-width:0.5;stroke-miterlimit:10"
           x="24.112"
           y="288.98999"
           stroke-miterlimit="10"
           width="2.4690001"
           height="2.4690001"
           id="rect4500" />
        <rect
           style="fill:#ff918f;stroke:#fff7ca;stroke-width:0.5;stroke-miterlimit:10"
           x="35.657001"
           y="302.492"
           stroke-miterlimit="10"
           width="2.4690001"
           height="2.4690001"
           id="rect4502" />
        <rect
           style="fill:#ff918f;stroke:#fff7ca;stroke-width:0.5;stroke-miterlimit:10"
           x="71.766998"
           y="276.04001"
           transform="matrix(0.7072,-0.707,0.707,0.7072,-174.6608,132.797)"
           stroke-miterlimit="10"
           width="2.47"
           height="2.4690001"
           id="rect4504" />
        <rect
           style="opacity:0.5;fill:#ff918f;stroke:#fff7ca;stroke-width:0.5;stroke-miterlimit:10"
           x="62.026001"
           y="273.39801"
           transform="matrix(0.7072,-0.707,0.707,0.7072,-175.6451,125.1369)"
           stroke-miterlimit="10"
           width="2.47"
           height="2.4690001"
           id="rect4506" />
        <rect
           style="fill:#ff918f;stroke:#fff7ca;stroke-width:0.5;stroke-miterlimit:10"
           x="49.869999"
           y="279.396"
           transform="matrix(0.7071,-0.7071,0.7071,0.7071,-183.4679,118.331)"
           stroke-miterlimit="10"
           width="2.4690001"
           height="2.47"
           id="rect4508" />
        <rect
           style="opacity:0.5;fill:#ff918f;stroke:#fff7ca;stroke-width:0.5;stroke-miterlimit:10"
           x="34.139999"
           y="293.87299"
           transform="matrix(0.7067,-0.7075,0.7075,0.7067,-198.4145,111.5803)"
           stroke-miterlimit="10"
           width="2.471"
           height="2.471"
           id="rect4510" />
        <rect
           style="opacity:0.5;fill:#ff918f;stroke:#fff7ca;stroke-width:0.5;stroke-miterlimit:10"
           x="59.332001"
           y="297.008"
           transform="matrix(0.7075,-0.7067,0.7067,0.7075,-193.0556,130.0379)"
           stroke-miterlimit="10"
           width="2.4679999"
           height="2.4679999"
           id="rect4512" />
        <rect
           style="opacity:0.5;fill:#ff918f;stroke:#fff7ca;stroke-width:0.5;stroke-miterlimit:10"
           x="22.877001"
           y="276.285"
           transform="matrix(0.7071,-0.7071,0.7071,0.7071,-189.1737,98.3334)"
           stroke-miterlimit="10"
           width="2.4690001"
           height="2.47"
           id="rect4514" />
        <rect
           style="fill:#ff918f;stroke:#fff7ca;stroke-width:0.5;stroke-miterlimit:10"
           x="52.094002"
           y="262.32501"
           transform="matrix(0.7071,0.7071,-0.7071,0.7071,201.9838,39.4852)"
           stroke-miterlimit="10"
           width="2.4690001"
           height="2.4679999"
           id="rect4516" />
        <rect
           style="fill:#ff918f;stroke:#fff7ca;stroke-width:0.5;stroke-miterlimit:10"
           x="38.638"
           y="284.26199"
           transform="matrix(0.7076,0.7066,-0.7066,0.7076,213.3944,55.3046)"
           stroke-miterlimit="10"
           width="2.4679999"
           height="2.47"
           id="rect4518" />
        <rect
           style="opacity:0.5;fill:#ff918f;stroke:#fff7ca;stroke-width:0.5;stroke-miterlimit:10"
           x="49.094002"
           y="269.909"
           transform="matrix(0.7067,0.7075,-0.7075,0.7067,206.5948,43.9151)"
           stroke-miterlimit="10"
           width="2.471"
           height="2.4679999"
           id="rect4520" />
        <rect
           style="fill:#ff918f;stroke:#fff7ca;stroke-width:0.5;stroke-miterlimit:10"
           x="28.288"
           y="273.39801"
           transform="matrix(0.7071,0.7071,-0.7071,0.7071,202.8418,59.5622)"
           stroke-miterlimit="10"
           width="2.4690001"
           height="2.4690001"
           id="rect4522" />
        <rect
           style="opacity:0.5;fill:#ff918f;stroke:#fff7ca;stroke-width:0.5;stroke-miterlimit:10"
           x="50.612"
           y="293.57599"
           transform="matrix(0.7068,0.7074,-0.7074,0.7068,223.7511,49.7582)"
           stroke-miterlimit="10"
           width="2.471"
           height="2.4679999"
           id="rect4524" />
        <rect
           style="opacity:0.5;fill:#ff918f;stroke:#fff7ca;stroke-width:0.5;stroke-miterlimit:10"
           x="48.123001"
           y="305.99701"
           transform="matrix(-0.7072,0.707,-0.707,-0.7072,301.4792,489.6108)"
           stroke-miterlimit="10"
           width="2.47"
           height="2.47"
           id="rect4526" />
        <rect
           style="fill:#ff918f;stroke:#fff7ca;stroke-width:0.5;stroke-miterlimit:10"
           x="13.715"
           y="277.08301"
           stroke-miterlimit="10"
           width="2.47"
           height="2.4690001"
           id="rect4528" />
        <rect
           style="fill:#ff918f;stroke:#fff7ca;stroke-width:0.5;stroke-miterlimit:10"
           x="25.347"
           y="306.99799"
           stroke-miterlimit="10"
           width="2.4690001"
           height="2.4690001"
           id="rect4530" />
        <rect
           style="fill:#ff918f;stroke:#fff7ca;stroke-width:0.5;stroke-miterlimit:10"
           x="15.527"
           y="302.48901"
           transform="matrix(-0.7068,-0.7074,0.7074,-0.7068,-186.245,530.2583)"
           stroke-miterlimit="10"
           width="2.471"
           height="2.471"
           id="rect4532" />
        <rect
           style="fill:#ff918f;stroke:#fff7ca;stroke-width:0.5;stroke-miterlimit:10"
           x="75.311996"
           y="293.875"
           transform="matrix(-0.7076,0.7066,-0.7066,-0.7076,339.2386,449.8405)"
           stroke-miterlimit="10"
           width="2.4679999"
           height="2.47"
           id="rect4534" />
        <rect
           style="opacity:0.5;fill:#ff918f;stroke:#fff7ca;stroke-width:0.5;stroke-miterlimit:10"
           x="69.427002"
           y="298.38"
           stroke-miterlimit="10"
           width="2.4690001"
           height="2.4690001"
           id="rect4536" />
        <rect
           style="fill:#ff918f;stroke:#fff7ca;stroke-width:0.5;stroke-miterlimit:10"
           x="66.871002"
           y="268.24899"
           stroke-miterlimit="10"
           width="2.4690001"
           height="2.4690001"
           id="rect4538" />
        <rect
           style="fill:#ff918f;stroke:#fff7ca;stroke-width:0.5;stroke-miterlimit:10"
           x="10.662"
           y="292.13"
           transform="matrix(-0.7072,-0.707,0.707,-0.7072,-187.1011,509.244)"
           stroke-miterlimit="10"
           width="2.47"
           height="2.4690001"
           id="rect4540" />
        <rect
           style="fill:#ff918f;stroke:#fff7ca;stroke-width:0.5;stroke-miterlimit:10"
           x="67.688004"
           y="306.30301"
           transform="matrix(-0.7071,-0.7071,0.7071,-0.7071,-99.804,573.736)"
           stroke-miterlimit="10"
           width="2.4690001"
           height="2.47"
           id="rect4542" />
        <rect
           style="fill:#ff918f;stroke:#fff7ca;stroke-width:0.5;stroke-miterlimit:10"
           x="45.601002"
           y="299.61099"
           transform="matrix(-0.7067,-0.7075,0.7075,-0.7067,-132.9138,546.5952)"
           stroke-miterlimit="10"
           width="2.471"
           height="2.471"
           id="rect4544" />
        <rect
           style="opacity:0.5;fill:#ff918f;stroke:#fff7ca;stroke-width:0.5;stroke-miterlimit:10"
           x="28.289"
           y="265.81601"
           transform="matrix(-0.7075,-0.7067,0.7067,-0.7075,-138.3169,476.8522)"
           stroke-miterlimit="10"
           width="2.4679999"
           height="2.4679999"
           id="rect4546" />
        <rect
           style="fill:#ff918f;stroke:#fff7ca;stroke-width:0.5;stroke-miterlimit:10"
           x="70.662003"
           y="285.67401"
           transform="matrix(-0.7071,-0.7071,0.7071,-0.7071,-80.14,540.6233)"
           stroke-miterlimit="10"
           width="2.4690001"
           height="2.47"
           id="rect4548" />
        <rect
           style="fill:#ff918f;stroke:#fff7ca;stroke-width:0.5;stroke-miterlimit:10"
           x="56.584999"
           y="308.74301"
           transform="matrix(-0.7076,0.7066,-0.7066,-0.7076,317.7662,488.4621)"
           stroke-miterlimit="10"
           width="2.4679999"
           height="2.47"
           id="rect4550" />
        <rect
           style="opacity:0.5;fill:#ff918f;stroke:#fff7ca;stroke-width:0.5;stroke-miterlimit:10"
           x="22.291"
           y="296.271"
           transform="matrix(-0.7071,0.7071,-0.7071,-0.7071,250.5288,491.2393)"
           stroke-miterlimit="10"
           width="2.4690001"
           height="2.4690001"
           id="rect4552" />
        <rect
           style="opacity:0.5;fill:#ff918f;stroke:#fff7ca;stroke-width:0.5;stroke-miterlimit:10"
           x="32.787998"
           y="309.73999"
           transform="matrix(-0.7068,0.7074,-0.7074,-0.7068,278.0568,506.7061)"
           stroke-miterlimit="10"
           width="2.471"
           height="2.4679999"
           id="rect4554" />
        <rect
           style="fill:#ff918f;stroke:#fff7ca;stroke-width:0.5;stroke-miterlimit:10"
           x="51.373001"
           y="255.908"
           transform="matrix(0.7075,0.7067,-0.7067,0.7075,197.1129,38.0357)"
           stroke-miterlimit="10"
           width="2.4679999"
           height="2.4690001"
           id="rect4556" />
        <rect
           style="fill:#ff918f;stroke:#fff7ca;stroke-width:0.5;stroke-miterlimit:10"
           x="33.654999"
           y="261.81201"
           transform="matrix(0.7071,0.7071,-0.7071,0.7071,196.2212,52.3739)"
           stroke-miterlimit="10"
           width="2.4690001"
           height="2.4690001"
           id="rect4558" />
        <rect
           style="fill:#ff918f;stroke:#fff7ca;stroke-width:0.5;stroke-miterlimit:10"
           x="39.573002"
           y="266.371"
           transform="matrix(0.7072,0.707,-0.707,0.7072,201.1474,49.5021)"
           stroke-miterlimit="10"
           width="2.47"
           height="2.47"
           id="rect4560" />
      </g>
      <g
         id="g4562">
        <linearGradient
           id="linearGradient10316"
           gradientUnits="userSpaceOnUse"
           x1="44.221699"
           y1="299.6904"
           x2="44.221699"
           y2="258.4238">
          <stop
             offset="0"
             style="stop-color:#FF5248;stop-opacity:0"
             id="stop10318" />
          <stop
             offset="1"
             style="stop-color:#FFFFFF;stop-opacity:0.75"
             id="stop10320" />
        </linearGradient>
        <path
           style="fill:url(#SVGID_75_)"
           inkscape:connector-curvature="0"
           d="m 66.815,286.439 c 0,17.668 -45.187,17.668 -45.187,0 0,-17.667 8.22,-28.016 22.593,-28.016 14.373,0 22.594,10.349 22.594,28.016 z"
           id="path4569" />
        <path
           style="fill:#ffffff"
           inkscape:connector-curvature="0"
           d="m 61.009,267.856 c 1.577,4.472 -0.771,8.097 -5.242,8.097 -4.472,0 -9.375,-3.625 -10.952,-8.097 -1.577,-4.473 0.77,-8.098 5.242,-8.098 4.472,0 9.375,3.626 10.952,8.098 z"
           id="path4571" />
        <path
           style="fill:#ffffff"
           inkscape:connector-curvature="0"
           d="m 65.732,277.778 c 0.125,1.485 -0.977,2.688 -2.461,2.688 -1.485,0 -2.791,-1.203 -2.916,-2.688 -0.126,-1.485 0.976,-2.689 2.461,-2.689 1.485,0 2.79,1.204 2.916,2.689 z"
           id="path4573" />
      </g>
    </g>
  </g>
</svg>
